<svg width="64" height="69" viewBox="0 0 64 69" fill="none" xmlns="http://www.w3.org/2000/svg">
<path d="M28.526 1.82345C29.5405 1.10345 30.7537 0.716675 31.9978 0.716675C33.2418 0.716675 34.455 1.10345 35.4695 1.82345L61.8035 20.5075C65.075 22.8295 63.437 27.9865 59.4275 27.9955H4.5815C0.5585 27.9955 -1.0885 22.834 2.1965 20.5075L28.526 1.82345ZM32 18.433C32.9948 18.433 33.9488 18.0378 34.6522 17.3344C35.3556 16.631 35.7508 15.677 35.7508 14.6822C35.7508 13.6874 35.3556 12.7334 34.6522 12.03C33.9488 11.3266 32.9948 10.9315 32 10.9315C31.0052 10.9315 30.0512 11.3266 29.3478 12.03C28.6444 12.7334 28.2493 13.6874 28.2493 14.6822C28.2493 15.677 28.6444 16.631 29.3478 17.3344C30.0512 18.0378 31.0052 18.433 32 18.433ZM7.25 32.5V50.5H16.25V32.5H7.25ZM0.5 64.7469C0.5 59.3605 4.865 54.9954 10.247 54.9954H53.7485C56.3344 54.9966 58.814 56.0244 60.6425 57.8529C62.471 59.6814 63.4988 62.1611 63.5 64.7469V66.2455C63.5 66.8422 63.2629 67.4145 62.841 67.8364C62.419 68.2584 61.8467 68.4955 61.25 68.4955H2.75C2.15326 68.4955 1.58097 68.2584 1.15901 67.8364C0.737053 67.4145 0.5 66.8422 0.5 66.2455V64.7469ZM56.75 32.4955V50.4954H47.75V32.5H56.75V32.4955ZM43.25 32.4955V50.4954H34.25V32.5H43.25V32.4955ZM29.75 32.4955V50.4954H20.75V32.5H29.75V32.4955Z" fill="#317865"/>
</svg>
