<svg width="44" height="32" viewBox="0 0 44 32" fill="none" xmlns="http://www.w3.org/2000/svg">
<path d="M4.5833 11.417H9.1666C8.8843 11.417 8.61841 11.2868 8.4443 11.065C8.2701 10.8432 8.2096 10.5535 8.27749 10.2785L8.84769 7.99969C9.15388 6.77319 10.252 5.91699 11.5152 5.91699H17.4167C18.9329 5.91699 20.1667 7.1508 20.1667 8.66699V10.5003C20.1667 11.0063 19.756 11.417 19.25 11.417H24.75C24.244 11.417 23.8333 11.0063 23.8333 10.5003V8.66699C23.8333 7.1508 25.0671 5.91699 26.5833 5.91699H32.4848C33.748 5.91699 34.8461 6.77319 35.1523 7.99969L35.7225 10.2785C35.7922 10.5517 35.7298 10.8432 35.5557 11.065C35.3815 11.2868 35.1157 11.417 34.8334 11.417H39.4167C39.9227 11.417 40.3334 11.0063 40.3334 10.5003V5.0003C40.3334 2.47399 38.2764 0.416992 35.7501 0.416992H8.24999C5.72369 0.416992 3.66669 2.47399 3.66669 5.0003V10.5003C3.66669 11.0063 4.0773 11.417 4.5833 11.417Z" fill="white"/>
<path d="M39.4167 13.2504H4.5833C2.057 13.2504 0 15.3074 0 17.8337V30.667C0 31.173 0.410695 31.5837 0.916695 31.5837C1.4227 31.5837 1.83339 31.173 1.83339 30.667V27.917H42.1667V30.667C42.1667 31.173 42.5774 31.5837 43.0834 31.5837C43.5894 31.5837 44.0001 31.173 44.0001 30.667V17.8337C44 15.3074 41.943 13.2504 39.4167 13.2504ZM42.1667 26.0837H1.8333V24.2504H42.1666V26.0837H42.1667Z" fill="white"/>
</svg>
