<svg width="44" height="44" viewBox="0 0 44 44" fill="none" xmlns="http://www.w3.org/2000/svg">
<path d="M41.25 21.8367H2.75C1.2338 21.8367 0 23.0705 0 24.5867C0 26.1029 1.2338 27.3367 2.75 27.3367H41.25C42.7662 27.3367 44 26.1029 44 24.5867C44 23.0705 42.7662 21.8367 41.25 21.8367Z" fill="white"/>
<path d="M41.503 25.5385C41.0062 25.3992 40.5075 25.6815 40.37 26.1692L40.2985 26.4204H3.7033L3.62999 26.1692C3.49249 25.6815 2.99019 25.4029 2.49699 25.5385C2.0093 25.6778 1.7288 26.1857 1.86819 26.6715L4.39449 35.5155C5.1773 38.2563 7.71469 40.1703 10.5637 40.1703H33.4345C36.2853 40.1703 38.8208 38.2563 39.6037 35.5155L42.13 26.6715C42.2712 26.1856 41.9888 25.6778 41.503 25.5385ZM10.5655 36.5036C9.34449 36.5036 8.25549 35.6841 7.9218 34.5089L6.73199 30.3399C6.59269 29.8522 6.87499 29.3462 7.3608 29.2069C7.8521 29.0676 8.3563 29.3517 8.4938 29.8376L9.6836 34.0066C9.7973 34.3971 10.1584 34.6721 10.5654 34.6721C11.0714 34.6721 11.4821 35.0828 11.4821 35.5888C11.4822 36.0948 11.0715 36.5036 10.5655 36.5036Z" fill="white"/>
<path d="M12.3255 38.4322C11.8727 38.2104 11.3245 38.3882 11.0953 38.8429L9.262 42.5096C9.0365 42.9624 9.2198 43.5124 9.67269 43.7398C9.8065 43.8058 9.94589 43.837 10.0834 43.837C10.4189 43.837 10.7416 43.6518 10.9029 43.3292L12.7362 39.6625C12.9617 39.2095 12.7783 38.6595 12.3255 38.4322Z" fill="white"/>
<path d="M34.738 42.5113L32.9047 38.8446C32.6774 38.3899 32.1274 38.2084 31.6745 38.4339C31.2217 38.6612 31.0383 39.2112 31.2638 39.6641L33.0971 43.3308C33.2584 43.6516 33.5811 43.8368 33.9166 43.8368C34.0541 43.8368 34.1934 43.8056 34.3273 43.7415C34.7802 43.5141 34.9635 42.9641 34.738 42.5113Z" fill="white"/>
<path d="M36.8225 0C35.8875 0 35.0075 0.364805 34.3457 1.0267L31.4362 3.9362C31.0787 4.29369 31.0787 4.87489 31.4362 5.23239C31.7937 5.58989 32.3749 5.58989 32.7324 5.23239L35.6418 2.3247C35.9553 2.00939 36.3751 1.8352 36.8316 1.8352C37.7519 1.8352 38.4999 2.5832 38.4999 3.5035V22.7535C38.4999 23.2595 38.9106 23.6702 39.4166 23.6702C39.9226 23.6702 40.3333 23.2595 40.3351 22.7517V3.5017C40.3352 1.5712 38.7658 0 36.8225 0Z" fill="white"/>
<path d="M33.649 4.85282L31.8157 3.01952C31.6067 2.81052 31.3152 2.71332 31.0182 2.76282L26.4349 3.51452C26.0976 3.56952 25.8207 3.80782 25.7126 4.13052C25.6044 4.45321 25.6869 4.81252 25.9253 5.05632L31.4253 10.7213C31.5995 10.9028 31.8396 11 32.0816 11C32.1678 11 32.2558 10.9872 32.3419 10.9615C32.6682 10.8662 32.9157 10.5967 32.9817 10.263L33.8984 5.67971C33.9588 5.38082 33.8653 5.07093 33.649 4.85282Z" fill="white"/>
<path d="M21.7305 11.1064C21.373 10.7489 20.7918 10.7489 20.4343 11.1064L18.601 12.9397C18.2435 13.2972 18.2435 13.8784 18.601 14.2359C18.7807 14.4137 19.0153 14.5036 19.25 14.5036C19.4847 14.5036 19.7193 14.4138 19.8972 14.2359L21.7305 12.4026C22.088 12.045 22.088 11.4639 21.7305 11.1064Z" fill="white"/>
<path d="M25.3972 14.773C25.0397 14.4155 24.4585 14.4155 24.101 14.773L22.2677 16.6063C21.9102 16.9638 21.9102 17.545 22.2677 17.9025C22.4474 18.0803 22.682 18.1702 22.9167 18.1702C23.1514 18.1702 23.386 18.0804 23.5639 17.9025L25.3972 16.0692C25.7547 15.7117 25.7547 15.1305 25.3972 14.773Z" fill="white"/>
<path d="M27.2305 9.27301C26.873 8.91551 26.2918 8.91551 25.9343 9.27301L24.101 11.1063C23.7435 11.4638 23.7435 12.045 24.101 12.4025C24.2807 12.5803 24.5153 12.6702 24.75 12.6702C24.9847 12.6702 25.2193 12.5804 25.3972 12.4025L27.2305 10.5692C27.588 10.2117 27.588 9.63051 27.2305 9.27301Z" fill="white"/>
</svg>
