<svg width="44" height="44" viewBox="0 0 44 44" fill="none" xmlns="http://www.w3.org/2000/svg">
<path d="M41.25 7.33325C39.7336 7.33325 38.5 8.5668 38.5 10.0833V21.9999H32.0833C30.5669 21.9999 29.3333 23.2335 29.3333 24.7499C29.3333 26.2664 30.5669 27.4999 32.0833 27.4999H36.6666V34.8333H33.9166C33.4099 34.8333 32.9999 35.2433 32.9999 35.7499C32.9999 36.2566 33.4099 36.6666 33.9166 36.6666H41.25C41.7567 36.6666 42.1667 36.2566 42.1667 35.7499C42.1667 35.2433 41.7567 34.8333 41.25 34.8333H38.5V27.4999H41.25C42.7665 27.4999 44 26.2664 44 24.7499V10.0833C44 8.56688 42.7665 7.33325 41.25 7.33325Z" fill="white"/>
<path d="M11.9167 21.9999H5.5V10.0833C5.5 8.5668 4.26645 7.33325 2.75 7.33325C1.23355 7.33325 0 8.5668 0 10.0833V24.7499C0 26.2664 1.23355 27.4999 2.75 27.4999H5.5V34.8333H2.75C2.24331 34.8333 1.8333 35.2433 1.8333 35.7499C1.8333 36.2566 2.24331 36.6666 2.75 36.6666H10.0833C10.59 36.6666 11 36.2566 11 35.7499C11 35.2433 10.59 34.8333 10.0833 34.8333H7.3333V27.4999H11.9166C13.4331 27.4999 14.6666 26.2664 14.6666 24.7499C14.6666 23.2335 13.4331 21.9999 11.9167 21.9999Z" fill="white"/>
<path d="M24.4913 20.9472C25.2934 21.4405 26.2029 21.9999 27.953 21.9999C29.7031 21.9999 30.6126 21.4405 31.4146 20.9472C32.1245 20.5113 32.6849 20.1666 33.9167 20.1666C34.4234 20.1666 34.8334 19.7566 34.8334 19.2499V16.4999C34.8334 14.4778 33.189 12.8333 31.1667 12.8333H12.8333C10.8111 12.8333 9.1666 14.4777 9.1666 16.4999V19.2499C9.1666 19.7566 9.5766 20.1666 10.0833 20.1666C11.3115 20.1666 11.8701 20.5113 12.5781 20.9472C13.3793 21.4405 14.287 21.9999 16.0353 21.9999C17.7827 21.9999 18.6913 21.4405 19.4925 20.9472C19.9965 20.6369 20.4347 20.3791 21.0832 20.2527V34.8333H17.4165C16.9098 34.8333 16.4998 35.2433 16.4998 35.7499C16.4998 36.2566 16.9098 36.6666 17.4165 36.6666H26.5832C27.0899 36.6666 27.4999 36.2566 27.4999 35.7499C27.4999 35.2433 27.0899 34.8333 26.5832 34.8333H22.9165V20.2577C23.5549 20.3857 23.9914 20.6402 24.4913 20.9472Z" fill="white"/>
</svg>
