<svg width="44" height="44" viewBox="0 0 44 44" fill="none" xmlns="http://www.w3.org/2000/svg">
<g clip-path="url(#clip0_1_2369)">
<path d="M0 29.2563H28.0715V33.9823H0V29.2563Z" fill="white"/>
<path d="M30.6552 14.637V26.6727H44V14.637H30.6552ZM37.5408 21.9467H36.0746V19.363H37.5408H38.7318V21.9467H37.5408Z" fill="white"/>
<path d="M30.6552 41.2919H41.4163V43.9823H44V29.2563H30.6552V41.2919ZM38.7318 36.566H36.0746V33.9823H38.7318V36.566Z" fill="white"/>
<path d="M44 12.0533V0.0177002H30.6552V12.0533H44ZM38.7318 4.74366V7.32737H36.0746V4.74366H38.7318Z" fill="white"/>
<path d="M0 36.566V43.9823H2.58371V41.2919H28.0715V36.566H0Z" fill="white"/>
<path d="M11.1935 20.5552C11.1935 19.22 10.3849 18.0706 9.23176 17.5697V14.6314H6.64805V17.5698C5.49502 18.0707 4.68626 19.2201 4.68626 20.5553V26.6728H11.1935V20.5552Z" fill="white"/>
<path d="M20.7605 23.5799V21.4771H13.7663V23.5799C13.7663 24.9199 14.5243 26.0856 15.6336 26.6726H18.8932C20.0026 26.0856 20.7605 24.9199 20.7605 23.5799Z" fill="white"/>
</g>
<defs>
<clipPath id="clip0_1_2369">
<rect width="44" height="44" fill="white"/>
</clipPath>
</defs>
</svg>
