<svg width="44" height="44" viewBox="0 0 44 44" fill="none" xmlns="http://www.w3.org/2000/svg">
<path d="M36.4375 8.51125L33.6875 7.13625V4.125H26.8125V7.13625L24.0625 8.51125V11H36.4375V8.51125Z" fill="white"/>
<path d="M35.0625 28.875H25.4375V35.0625H35.0625V28.875ZM31.625 30.9375H28.875V29.5625H31.625V30.9375Z" fill="white"/>
<path d="M8.9375 35.75H20.625V31.625H8.9375V35.75ZM13.0625 33H15.8125V34.375H13.0625V33Z" fill="white"/>
<path d="M8.9375 30.25H20.625V26.125H8.9375V30.25ZM13.0625 27.5H15.8125V28.875H13.0625V27.5Z" fill="white"/>
<path d="M8.25 13.8738C7.79129 14.0359 7.40468 14.355 7.1585 14.7747C6.91233 15.1944 6.82243 15.6875 6.9047 16.1671C6.98698 16.6466 7.23612 17.0816 7.60811 17.3952C7.98009 17.7088 8.45097 17.8808 8.9375 17.8808C9.42403 17.8808 9.89491 17.7088 10.2669 17.3952C10.6389 17.0816 10.888 16.6466 10.9703 16.1671C11.0526 15.6875 10.9627 15.1944 10.7165 14.7747C10.4703 14.355 10.0837 14.0359 9.625 13.8738V7.5625H15.8125V10.3744C14.7927 10.5468 13.8748 11.096 13.2408 11.9132C12.6068 12.7304 12.303 13.756 12.3894 14.7866C12.4759 15.8173 12.9465 16.7779 13.7078 17.478C14.4691 18.1781 15.4657 18.5667 16.5 18.5667C17.5343 18.5667 18.5309 18.1781 19.2922 17.478C20.0535 16.7779 20.5241 15.8173 20.6106 14.7866C20.697 13.756 20.3932 12.7304 19.7592 11.9132C19.1252 11.096 18.2073 10.5468 17.1875 10.3744V7.5625H20.625V6.1875H17.1875V4.8125H15.8125V6.1875H9.625V4.8125H8.25V6.1875H6.1875V7.5625H8.25V13.8738Z" fill="white"/>
<path d="M39.875 21.3125H33.6875V19.25H30.9375V20.625H32.3125V21.3125H28.1875V20.625H29.5625V19.25H26.8125V21.3125H4.125V22.6875H4.8125V39.875H39.1875V22.6875H39.875V21.3125ZM7.5625 24.75H22V37.125H7.5625V24.75ZM36.4375 36.4375H24.0625V27.5H36.4375V36.4375ZM30.5938 24.0625C30.7977 24.0625 30.9971 24.123 31.1667 24.2363C31.3363 24.3496 31.4684 24.5107 31.5465 24.6991C31.6246 24.8875 31.645 25.0949 31.6052 25.2949C31.5654 25.495 31.4672 25.6787 31.323 25.823C31.1787 25.9672 30.995 26.0654 30.7949 26.1052C30.5949 26.145 30.3875 26.1246 30.1991 26.0465C30.0107 25.9684 29.8496 25.8363 29.7363 25.6667C29.623 25.4971 29.5625 25.2977 29.5625 25.0938C29.5625 24.8202 29.6711 24.5579 29.8645 24.3645C30.0579 24.1711 30.3202 24.0625 30.5938 24.0625ZM34.0312 24.0625C34.2352 24.0625 34.4346 24.123 34.6042 24.2363C34.7738 24.3496 34.9059 24.5107 34.984 24.6991C35.0621 24.8875 35.0825 25.0949 35.0427 25.2949C35.0029 25.495 34.9047 25.6787 34.7605 25.823C34.6162 25.9672 34.4325 26.0654 34.2324 26.1052C34.0324 26.145 33.825 26.1246 33.6366 26.0465C33.4482 25.9684 33.2871 25.8363 33.1738 25.6667C33.0605 25.4971 33 25.2977 33 25.0938C33 24.8202 33.1086 24.5579 33.302 24.3645C33.4954 24.1711 33.7577 24.0625 34.0312 24.0625Z" fill="white"/>
</svg>
