<svg width="44" height="44" viewBox="0 0 44 44" fill="none" xmlns="http://www.w3.org/2000/svg">
<path d="M43.2158 13.2779H41.7975V9.37748C41.7975 8.90727 41.6107 8.45632 41.2782 8.12383C40.9457 7.79135 40.4948 7.60456 40.0246 7.60456C39.5544 7.60456 39.1034 7.79135 38.7709 8.12383C38.4384 8.45632 38.2517 8.90727 38.2517 9.37748V13.2779H37.5425V8.31373C37.5421 7.94872 37.397 7.59876 37.1389 7.34066C36.8808 7.08256 36.5308 6.93741 36.1658 6.93706H36.1242C36.1242 6.74897 36.0494 6.56859 35.9165 6.4356C35.7835 6.30261 35.6031 6.22789 35.415 6.22789C35.2269 6.22789 35.0465 6.30261 34.9135 6.4356C34.7805 6.56859 34.7058 6.74897 34.7058 6.93706H34.6642C34.2992 6.93741 33.9492 7.08256 33.6911 7.34066C33.433 7.59876 33.2878 7.94872 33.2875 8.31373V13.2779H31.8692C31.6811 13.2779 31.5007 13.3526 31.3677 13.4856C31.2347 13.6186 31.16 13.799 31.16 13.9871V23.9154H26.905C26.5237 23.9152 26.1494 24.0175 25.8213 24.2116C25.4931 24.4057 25.2232 24.6845 25.0398 25.0187C24.8564 25.353 24.7662 25.7304 24.7787 26.1114C24.7912 26.4925 24.9059 26.8631 25.1108 27.1847C24.8883 27.2334 24.6732 27.2863 24.4655 27.3433L24.0683 27.2299V18.9512C24.0683 18.7631 23.9936 18.5828 23.8606 18.4498C23.7276 18.3168 23.5472 18.2421 23.3592 18.2421H21.2317C21.0436 18.2421 20.8632 18.3168 20.7302 18.4498C20.5972 18.5828 20.5225 18.7631 20.5225 18.9512H4.92083C4.92083 18.7631 4.84612 18.5828 4.71312 18.4498C4.58013 18.3168 4.39975 18.2421 4.21167 18.2421H3.5025V11.1504C3.50276 10.9624 3.57756 10.7822 3.71049 10.6492C3.84343 10.5163 4.02366 10.4415 4.21167 10.4412H6.33917C6.52717 10.4415 6.7074 10.5163 6.84034 10.6492C6.97328 10.7822 7.04807 10.9624 7.04833 11.1504C7.04817 11.3055 7.09928 11.4564 7.19371 11.5794L6.84977 12.9561C6.80557 12.9826 6.76628 13.0164 6.73364 13.0563L6.09096 13.8647L4.93679 13.8222C4.85114 13.8189 4.76638 13.8405 4.69277 13.8844C4.61916 13.9284 4.55986 13.9927 4.52206 14.0696C4.48425 14.1465 4.46956 14.2327 4.47976 14.3178C4.48997 14.4029 4.52463 14.4833 4.57955 14.5491L5.25148 15.3566L4.91285 16.2688C4.88434 16.3454 4.87757 16.4284 4.89329 16.5086C4.90901 16.5889 4.94661 16.6632 5.00193 16.7234C5.05725 16.7835 5.12814 16.8273 5.20676 16.8497C5.28537 16.8721 5.36865 16.8723 5.44739 16.8503L6.54748 16.5436L7.4889 17.1889C7.55626 17.2352 7.6351 17.262 7.71671 17.2663C7.79832 17.2705 7.87953 17.2522 7.95136 17.2132C8.02318 17.1742 8.08283 17.1161 8.12371 17.0454C8.16459 16.9746 8.18511 16.8939 8.183 16.8122L8.15729 15.8398L9.0535 15.2919C9.12665 15.2475 9.18534 15.1828 9.22246 15.1057C9.25959 15.0285 9.27356 14.9423 9.26267 14.8574C9.25179 14.7725 9.21653 14.6926 9.16115 14.6273C9.10578 14.5621 9.03266 14.5142 8.95067 14.4897L7.84614 14.1564L7.62098 13.5261L8.05358 11.794L8.78047 12.1565C8.67898 12.6009 8.7438 13.0671 8.96269 13.4669C9.18158 13.8668 9.53936 14.1726 9.96841 14.3266C10.3975 14.4805 10.868 14.472 11.2912 14.3025C11.7144 14.1331 12.0608 13.8145 12.2651 13.407C12.4693 12.9994 12.5171 12.5312 12.3996 12.0908C12.282 11.6504 12.0072 11.2683 11.627 11.0167C11.2469 10.7652 10.7877 10.6616 10.3364 10.7256C9.88509 10.7896 9.47285 11.0167 9.1776 11.364L8.46135 11.0068C8.42435 10.4689 8.18477 9.96511 7.79093 9.59693C7.39709 9.22875 6.8783 9.02362 6.33917 9.02289H4.21167C3.64765 9.02364 3.10695 9.24803 2.70813 9.64685C2.3093 10.0457 2.08492 10.5864 2.08417 11.1504V18.2421C1.89608 18.2421 1.7157 18.3168 1.58271 18.4498C1.44972 18.5828 1.375 18.7631 1.375 18.9512V33.8437C1.375 34.0318 1.44972 34.2122 1.58271 34.3452C1.7157 34.4782 1.89608 34.5529 2.08417 34.5529H21.2317V34.8499C21.2328 35.8992 21.6502 36.9053 22.3922 37.6473C23.1343 38.3893 24.1403 38.8067 25.1897 38.8079H33.5845C34.6338 38.8067 35.6399 38.3893 36.3819 37.6473C37.1239 36.9053 37.5413 35.8992 37.5425 34.8499V32.4254H38.4493L38.7676 33.3783C38.9079 33.7991 39.2055 34.1492 39.5981 34.3555C39.9907 34.5618 40.4478 34.6082 40.8739 34.4851C41.3 34.362 41.6619 34.0788 41.884 33.6949C42.106 33.311 42.1709 32.8561 42.0652 32.4254H43.2158C43.4039 32.4254 43.5843 32.3507 43.7173 32.2177C43.8503 32.0847 43.925 31.9043 43.925 31.7162V13.9871C43.925 13.799 43.8503 13.6186 43.7173 13.4856C43.5843 13.3526 43.4039 13.2779 43.2158 13.2779ZM3.5025 33.1346H2.79333V19.6604H3.5025V33.1346ZM39.67 9.37748C39.67 9.28343 39.7074 9.19324 39.7738 9.12675C39.8403 9.06025 39.9305 9.02289 40.0246 9.02289C40.1186 9.02289 40.2088 9.06025 40.2753 9.12675C40.3418 9.19324 40.3792 9.28343 40.3792 9.37748V9.73206H39.67V9.37748ZM26.905 25.3337H31.8692C32.0572 25.3337 32.2376 25.4084 32.3706 25.5414C32.5036 25.6744 32.5783 25.8548 32.5783 26.0429C32.5783 26.231 32.5036 26.4114 32.3706 26.5443C32.2376 26.6773 32.0572 26.7521 31.8692 26.7521H26.905C26.7169 26.7521 26.5365 26.6773 26.4035 26.5443C26.2705 26.4114 26.1958 26.231 26.1958 26.0429C26.1958 25.8548 26.2705 25.6744 26.4035 25.5414C26.5365 25.4084 26.7169 25.3337 26.905 25.3337ZM26.905 28.1704H31.8692C32.0572 28.1704 32.2376 28.2451 32.3706 28.3781C32.5036 28.5111 32.5783 28.6915 32.5783 28.8796C32.5783 29.0676 32.5036 29.248 32.3706 29.381C32.2376 29.514 32.0572 29.5887 31.8692 29.5887H26.905C26.7169 29.5887 26.5365 29.514 26.4035 29.381C26.2705 29.248 26.1958 29.0676 26.1958 28.8796C26.1958 28.6915 26.2705 28.5111 26.4035 28.3781C26.5365 28.2451 26.7169 28.1704 26.905 28.1704ZM25.4867 31.0071H33.2875C33.3806 31.0067 33.4729 31.0248 33.559 31.0603C33.6451 31.0957 33.7233 31.1478 33.7892 31.2136C32.5455 31.5389 31.012 31.7162 29.3871 31.7162C27.5778 31.7162 26.0974 31.5026 24.9885 31.2101C25.1217 31.08 25.3005 31.0071 25.4867 31.0071ZM4.92083 20.3696H20.5225V21.0787H4.92083V20.3696ZM20.5225 22.4971V26.5925C20.1732 26.7096 19.8612 26.9174 19.6186 27.1947C19.3759 27.4719 19.2112 27.8086 19.1414 28.1704H19.1042V22.4971H20.5225ZM17.6858 22.4971V28.1704H16.2675V22.4971H17.6858ZM14.8492 22.4971V28.1704H13.4308V22.4971H14.8492ZM12.0125 22.4971V28.1704H10.5942V22.4971H12.0125ZM9.17583 22.4971V28.1704H7.7575V22.4971H9.17583ZM4.92083 22.4971H6.33917V28.1704H4.92083V22.4971ZM21.3691 29.2953L20.9976 29.1898C20.8862 29.158 20.7853 29.0971 20.7051 29.0135C20.6249 28.9299 20.5683 28.8264 20.5411 28.7138C20.5288 28.6636 20.5226 28.6121 20.5225 28.5604C20.5225 28.3871 20.5911 28.2208 20.7134 28.0978C20.8356 27.9749 21.0016 27.9054 21.1749 27.9045H21.182C21.1909 27.9053 21.1997 27.9053 21.2077 27.9053C21.2582 27.9074 21.3082 27.9157 21.3567 27.9302L22.3663 28.2191C21.8229 28.5728 21.5215 28.9452 21.3691 29.2953ZM21.9408 26.6217V19.6604H22.65V26.8247L21.9408 26.6217ZM22.6624 30.0036C22.6606 29.9983 22.6589 29.993 22.6571 29.9885C22.6526 29.9739 22.6503 29.9586 22.65 29.9433C22.65 29.79 23.0196 29.2448 24.664 28.7617C24.703 28.7501 24.7438 28.7386 24.7837 28.7271C24.7802 28.7776 24.7775 28.8281 24.7775 28.8796C24.7777 29.1479 24.8285 29.4137 24.9273 29.6632C24.5692 29.7603 24.2428 29.9494 23.9806 30.2119C23.8302 30.364 23.7033 30.5376 23.6038 30.7269C23.0569 30.4716 22.736 30.211 22.6624 30.0036ZM23.3592 33.8437C23.3592 33.6556 23.4339 33.4753 23.5669 33.3423C23.6999 33.2093 23.8802 33.1346 24.0683 33.1346H24.7775C24.9656 33.1346 25.146 33.2093 25.279 33.3423C25.4119 33.4753 25.4867 33.6556 25.4867 33.8437C25.4867 34.0318 25.4119 34.2122 25.279 34.3452C25.146 34.4782 24.9656 34.5529 24.7775 34.5529H24.0683C23.8802 34.5529 23.6999 34.4782 23.5669 34.3452C23.4339 34.2122 23.3592 34.0318 23.3592 33.8437ZM26.1958 36.6804H24.7775C24.5894 36.6804 24.409 36.6057 24.276 36.4727C24.143 36.3397 24.0683 36.1593 24.0683 35.9712C24.0683 35.7831 24.143 35.6028 24.276 35.4698C24.409 35.3368 24.5894 35.2621 24.7775 35.2621H26.1958C26.3839 35.2621 26.5643 35.3368 26.6973 35.4698C26.8303 35.6028 26.905 35.7831 26.905 35.9712C26.905 36.1593 26.8303 36.3397 26.6973 36.4727C26.5643 36.6057 26.3839 36.6804 26.1958 36.6804ZM29.0325 35.2621H27.6142C27.4261 35.2621 27.2457 35.1873 27.1127 35.0543C26.9797 34.9214 26.905 34.741 26.905 34.5529C26.905 34.3648 26.9797 34.1844 27.1127 34.0514C27.2457 33.9184 27.4261 33.8437 27.6142 33.8437H29.0325C29.2206 33.8437 29.401 33.9184 29.534 34.0514C29.6669 34.1844 29.7417 34.3648 29.7417 34.5529C29.7417 34.741 29.6669 34.9214 29.534 35.0543C29.401 35.1873 29.2206 35.2621 29.0325 35.2621ZM32.5783 36.6804H30.4508C30.2627 36.6804 30.0824 36.6057 29.9494 36.4727C29.8164 36.3397 29.7417 36.1593 29.7417 35.9712C29.7417 35.7831 29.8164 35.6028 29.9494 35.4698C30.0824 35.3368 30.2627 35.2621 30.4508 35.2621H32.5783C32.7664 35.2621 32.9468 35.3368 33.0798 35.4698C33.2128 35.6028 33.2875 35.7831 33.2875 35.9712C33.2875 36.1593 33.2128 36.3397 33.0798 36.4727C32.9468 36.6057 32.7664 36.6804 32.5783 36.6804ZM34.7058 34.5529H33.2875C33.0994 34.5529 32.919 34.4782 32.786 34.3452C32.653 34.2122 32.5783 34.0318 32.5783 33.8437C32.5783 33.6556 32.653 33.4753 32.786 33.3423C32.919 33.2093 33.0994 33.1346 33.2875 33.1346H34.7058C34.8939 33.1346 35.0743 33.2093 35.2073 33.3423C35.3403 33.4753 35.415 33.6556 35.415 33.8437C35.415 34.0318 35.3403 34.2122 35.2073 34.3452C35.0743 34.4782 34.8939 34.5529 34.7058 34.5529ZM35.1756 30.7287C35.0406 30.4682 34.8527 30.2388 34.6239 30.0552C34.3951 29.8715 34.1304 29.7377 33.8468 29.6623C33.9461 29.4133 33.9969 29.1476 33.9967 28.8796C33.9967 28.8281 33.994 28.7776 33.9905 28.728C35.4815 29.1482 36.1242 29.6862 36.1242 29.9433C36.1242 30.0958 35.8538 30.4069 35.1756 30.7287ZM34.3105 27.3433C34.1036 27.2866 33.8879 27.2334 33.6634 27.1838C33.7498 27.0483 33.8206 26.9035 33.8743 26.7521H36.3786L34.3105 27.3433ZM37.4033 29.2962C37.2278 28.9008 36.8901 28.54 36.4016 28.2209L37.4175 27.9302C37.4766 27.9133 37.5378 27.9047 37.5992 27.9045C37.757 27.9052 37.9091 27.9627 38.0279 28.0666C38.1466 28.1705 38.2239 28.3137 38.2455 28.4699C38.2672 28.6261 38.2318 28.785 38.1458 28.9172C38.0598 29.0494 37.929 29.1462 37.7774 29.1898L37.4033 29.2962ZM42.5067 31.0071H37.5425V30.7314L38.1666 30.5532C38.56 30.4407 38.9114 30.2143 39.1764 29.9025C39.4415 29.5907 39.6083 29.2074 39.6559 28.8009C39.7034 28.3945 39.6297 27.983 39.4438 27.6184C39.258 27.2538 38.9684 26.9524 38.6116 26.7521H42.5067V31.0071ZM42.5067 25.3337H33.8743C33.7682 25.035 33.5968 24.7636 33.3726 24.5395C33.1484 24.3153 32.8771 24.1439 32.5783 24.0377V21.0787H42.5067V25.3337ZM42.5067 19.6604H32.5783V14.6962H42.5067V19.6604Z" fill="white"/>
<path d="M37.5425 16.8235C37.9341 16.8235 38.2516 16.506 38.2516 16.1144C38.2516 15.7227 37.9341 15.4052 37.5425 15.4052C37.1508 15.4052 36.8333 15.7227 36.8333 16.1144C36.8333 16.506 37.1508 16.8235 37.5425 16.8235Z" fill="white"/>
<path d="M37.5425 23.2062C37.9341 23.2062 38.2516 22.8887 38.2516 22.4971C38.2516 22.1054 37.9341 21.7879 37.5425 21.7879C37.1508 21.7879 36.8333 22.1054 36.8333 22.4971C36.8333 22.8887 37.1508 23.2062 37.5425 23.2062Z" fill="white"/>
</svg>
