<svg width="44" height="44" viewBox="0 0 44 44" fill="none" xmlns="http://www.w3.org/2000/svg">
<path d="M32.309 34.2756H10.0536V42.9379C10.0536 42.9807 10.0519 43.0231 10.0505 43.0655H32.312C32.3107 43.0231 32.309 42.9807 32.309 42.9379V34.2756Z" fill="white"/>
<path d="M1.28671 12.2694H24.7799C25.4905 12.2694 26.0666 11.642 26.0666 10.868V1.40142C26.0666 0.627402 25.4905 0 24.7799 0H1.28671C0.57605 0 0 0.627402 0 1.40142V10.868C0 11.642 0.57605 12.2694 1.28671 12.2694Z" fill="white"/>
<path d="M38.7098 21.0585V25.4858H39.4413V14.1136H42.7133C43.1078 14.1136 43.4804 13.9165 43.7244 13.579C43.9685 13.2412 44.0568 12.8003 43.9641 12.3827L41.9963 3.52414C41.8566 2.89528 41.34 2.45215 40.7458 2.45215H35.5634C34.9695 2.45215 34.4526 2.89528 34.3129 3.52414L32.3451 12.3827C32.2524 12.8003 32.3407 13.2412 32.5848 13.579C32.8288 13.9165 33.2015 14.1136 33.5959 14.1136H36.8679V17.4762C37.972 18.2169 38.7098 19.5456 38.7098 21.0585Z" fill="white"/>
<path d="M32.309 31.4726V29.3509C32.309 27.2197 33.9009 25.4859 35.8576 25.4859H36.1359V21.0586C36.1359 20.2857 35.5589 19.6572 34.8492 19.6572H7.51303C6.80371 19.6572 6.22632 20.2857 6.22632 21.0586V25.4859H6.50461C8.46136 25.4859 10.0532 27.2197 10.0532 29.3509V31.4726H32.309Z" fill="white"/>
<path d="M7.47995 29.3507C7.47995 28.7653 7.04254 28.2886 6.50476 28.2886H1.91147C1.37369 28.2886 0.936279 28.7653 0.936279 29.3507V42.9378C0.936279 43.5235 1.37369 43.9999 1.91147 43.9999H6.50476C7.04254 43.9999 7.47995 43.5235 7.47995 42.9378V29.3507Z" fill="white"/>
<path d="M41.4266 42.9378V29.3507C41.4266 28.7653 40.9888 28.2886 40.451 28.2886H35.8578C35.32 28.2886 34.8826 28.7653 34.8826 29.3507V42.9378C34.8826 43.5235 35.32 43.9999 35.8578 43.9999H40.451C40.9888 43.9999 41.4266 43.5235 41.4266 42.9378Z" fill="white"/>
</svg>
