<svg width="44" height="44" viewBox="0 0 44 44" fill="none" xmlns="http://www.w3.org/2000/svg">
<g clip-path="url(#clip0_1_2356)">
<path d="M38.2494 11.3535C41.378 11.3535 43.9142 8.81197 43.9142 5.67677C43.9142 2.54158 41.378 0 38.2494 0C35.1208 0 32.5846 2.54158 32.5846 5.67677C32.5846 8.81197 35.1208 11.3535 38.2494 11.3535Z" fill="white"/>
<path d="M30.8856 31.828H34.5298V35.4798H30.8856V31.828Z" fill="white"/>
<path d="M24.2522 11.9662C24.959 11.3378 25.8686 10.9918 26.8134 10.9918C27.7582 10.9918 28.6679 11.3379 29.3747 11.9662L30.3904 12.8691V9.64322C30.3904 4.33306 26.0794 0.0129776 20.7803 0.0129776C16.1386 0.0129776 12.2551 3.32784 11.363 7.71925C12.8221 9.94013 15.3793 14.2813 16.473 18.8816L24.2522 11.9662Z" fill="white"/>
<path d="M42.7134 41.405H40.9365V29.1378L41.7739 29.8822C42.0188 30.0999 42.3236 30.207 42.6271 30.2069C42.9823 30.2069 43.3359 30.0604 43.5901 29.7732C44.0616 29.2406 44.013 28.4257 43.4814 27.9532L39.7098 24.6005V17.9189C39.7098 17.2069 39.1338 16.6297 38.4233 16.6297C37.7127 16.6297 37.1367 17.2069 37.1367 17.9189V22.3132L27.6671 13.8951C27.1799 13.462 26.4467 13.462 25.9596 13.8951L10.1454 27.9531C9.61383 28.4256 9.56519 29.2405 10.0366 29.7731C10.5082 30.3059 11.3214 30.3545 11.8528 29.882L12.6902 29.1376V41.4049H8.53806V35.7802C9.08763 35.6119 9.61649 35.3355 10.1172 34.9566V32.6829C9.3482 32.5018 8.64505 32.0867 8.1119 31.4844C6.69969 29.8891 6.84587 27.4397 8.43777 26.0244L14.2447 20.8623C13.2673 14.6134 8.51099 8.09815 8.28635 7.79341C8.04375 7.46444 7.65978 7.27031 7.25158 7.27031C6.84338 7.27031 6.45941 7.46444 6.2168 7.79341C5.9663 8.13312 0.0827578 16.1915 0.0827578 22.9944C0.0827578 26.3147 0.743531 29.4566 1.94339 31.8412C3.0018 33.9447 4.3994 35.3016 5.96501 35.7803V41.405H1.28657C0.576039 41.405 0 41.9823 0 42.6943C0 43.4063 0.576039 43.9835 1.28657 44H40.9366H42.7135C43.424 43.9835 44.0001 43.4063 44.0001 42.6943C44.0001 41.9823 43.424 41.405 42.7134 41.405ZM28.3125 30.5387C28.3125 29.8268 28.8885 29.2495 29.599 29.2495H35.8163C36.5269 29.2495 37.1029 29.8268 37.1029 30.5387V36.7691C37.1029 37.4811 36.5269 38.0584 35.8163 38.0584H29.599C28.8885 38.0584 28.3125 37.4811 28.3125 36.7691V30.5387ZM21.2674 41.405V31.828H18.6942V41.405H16.1212V30.5387C16.1212 29.8267 16.6972 29.2495 17.4078 29.2495H22.554C23.2645 29.2495 23.8405 29.8268 23.8405 30.5387V41.405H21.2674Z" fill="white"/>
</g>
<defs>
<clipPath id="clip0_1_2356">
<rect width="44" height="44" fill="white"/>
</clipPath>
</defs>
</svg>
