<svg width="44" height="44" viewBox="0 0 44 44" fill="none" xmlns="http://www.w3.org/2000/svg">
<g clip-path="url(#clip0_1_2346)">
<path d="M22.3958 18.402H0V20.7983H1.91472V42.5863H17.748V20.7983H22.3958V18.402Z" fill="white"/>
<path d="M33.9771 29.2818C33.9812 29.2818 33.9887 29.2844 33.9935 29.2844C36.9142 29.3695 38.5812 28.499 38.8397 26.1851L40.0245 15.531C40.2454 13.5459 38.6626 12.0313 37.0814 11.4518L37.0686 11.4476C37.0686 11.4476 36.5047 11.2643 35.9891 11.1939C35.4516 11.1223 34.9226 11.2192 34.9226 11.2192C33.6874 11.3632 32.4672 12.2367 32.4672 12.2367C30.1955 13.8546 26.6736 14.2042 21.9919 13.2745C20.8142 13.0376 19.6692 13.8064 19.4353 14.9838C19.2013 16.1614 19.9665 17.3056 21.1444 17.5397C23.1071 17.9311 24.9326 18.1247 26.6165 18.1247C28.1468 18.1247 29.5216 17.9552 30.8139 17.6329L30.8036 17.7832L30.0486 24.5738C26.0937 24.7166 23.6022 25.5314 22.6256 27.0114C21.3047 29.0225 19.1588 37.1307 18.5329 39.618C18.2095 40.9028 18.9903 42.2067 20.2754 42.531C20.4708 42.5801 20.6681 42.6046 20.8623 42.6046C21.9361 42.6046 22.9155 41.878 23.1889 40.79C24.2918 36.4085 25.8156 31.8671 26.5114 30.4294C27.0878 29.179 30.9014 29.1124 33.9771 29.2818Z" fill="white"/>
<path d="M35.4142 10.9234C38.0972 10.9234 40.2722 8.74846 40.2722 6.0655C40.2722 3.38254 38.0972 1.20757 35.4142 1.20757C32.7313 1.20757 30.5563 3.38254 30.5563 6.0655C30.5563 8.74846 32.7313 10.9234 35.4142 10.9234Z" fill="white"/>
<path d="M43.3547 24.5692L43.9999 16.2044C44.0016 16.157 43.9838 16.1109 43.9509 16.0767C43.9179 16.0426 43.8725 16.0232 43.825 16.0232H41.17C41.0758 16.0232 40.9985 16.0979 40.9951 16.1921L40.3952 24.563C40.3162 27.1438 39.5558 30.3179 35.221 30.3179C35.1596 30.3179 30.4275 30.3073 30.4275 30.3073C30.4274 30.3073 30.4274 30.3073 30.4274 30.3073C30.3809 30.3073 30.3365 30.3257 30.3036 30.3584C30.2709 30.3913 30.2523 30.4359 30.2523 30.4823V33.0689C30.2523 33.1656 30.3307 33.244 30.4274 33.244L34.779 33.2438V39.1891H33.4128C31.6242 39.1891 30.1132 40.7593 30.1132 42.6175C30.1132 42.7143 30.1915 42.7925 30.2881 42.7925H32.0116C32.1083 42.7925 32.1867 42.7143 32.1867 42.6175C32.1867 41.9339 32.7477 41.3564 33.412 41.3564H39.0783C39.743 41.3564 40.3044 41.9339 40.3044 42.6175C40.3044 42.7143 40.3828 42.7925 40.4794 42.7925H42.2035C42.3002 42.7925 42.3785 42.7143 42.3785 42.6175C42.3785 40.7593 40.8671 39.1891 39.0782 39.1891H37.7132V32.9249C41.9861 32.8094 42.9775 28.5751 43.3547 24.5692Z" fill="white"/>
<path d="M18.2074 15.8476H10.0027L7.22584 5.67144C7.20625 5.59988 7.13254 5.55757 7.06106 5.57733L5.58038 5.98132C5.54603 5.99071 5.51686 6.01335 5.49924 6.04421C5.48153 6.07516 5.47688 6.11175 5.48627 6.1461L8.59855 17.5507C8.61447 17.609 8.66752 17.6496 8.72799 17.6496H18.2075C18.2817 17.6496 18.3417 17.5895 18.3417 17.5154V15.9816C18.3416 15.9076 18.2816 15.8476 18.2074 15.8476Z" fill="white"/>
</g>
<defs>
<clipPath id="clip0_1_2346">
<rect width="44" height="44" fill="white"/>
</clipPath>
</defs>
</svg>
