<svg width="90" height="90" viewBox="0 0 90 90" fill="none" xmlns="http://www.w3.org/2000/svg">
<path d="M41.4016 56.6758C41.5736 58.1755 42.9777 59.292 44.6137 59.292C44.7249 59.292 44.837 59.2869 44.9499 59.2764C46.726 59.1108 48.0172 57.6783 47.8335 56.0768L46.3424 43.0668C46.1587 41.4652 44.5693 40.3026 42.794 40.4666C41.0179 40.6322 39.7268 42.0647 39.9105 43.6662L41.4016 56.6758Z" fill="#FFA892"/>
<path d="M61.6354 59.2764C61.7484 59.2869 61.8604 59.2919 61.9717 59.2919C63.6081 59.2919 65.0117 58.1755 65.1837 56.6758L66.6744 43.6658C66.8581 42.0638 65.567 40.6314 63.7909 40.4662C62.0135 40.3025 60.4258 41.4652 60.2421 43.0664L58.7514 56.0763C58.5678 57.6783 59.8589 59.1108 61.6354 59.2764Z" fill="#FFA892"/>
<path d="M36.6006 71.9491C31.0822 71.9491 26.5928 75.9973 26.5928 80.9734C26.5928 85.9507 31.0822 90.0001 36.6006 90.0001C42.119 90.0001 46.6088 85.9507 46.6088 80.9734C46.6088 75.9973 42.119 71.9491 36.6006 71.9491ZM36.6006 84.1688C34.6477 84.1688 33.0592 82.7352 33.0592 80.973C33.0592 79.2121 34.6477 77.7796 36.6006 77.7796C38.5534 77.7796 40.1424 79.2121 40.1424 80.973C40.1424 82.7352 38.5534 84.1688 36.6006 84.1688Z" fill="#FFA892"/>
<path d="M69.9848 71.9491C64.4664 71.9491 59.9766 75.9973 59.9766 80.9734C59.9766 85.9507 64.466 90.0001 69.9848 90.0001C75.5036 90.0001 79.9939 85.9507 79.9939 80.9734C79.9939 75.9973 75.5036 71.9491 69.9848 71.9491ZM69.9848 84.1688C68.0319 84.1688 66.4429 82.7352 66.4429 80.973C66.4429 79.2121 68.0319 77.7796 69.9848 77.7796C71.9381 77.7796 73.5275 79.2121 73.5275 80.973C73.5275 82.7352 71.9385 84.1688 69.9848 84.1688Z" fill="#FFA892"/>
<path d="M89.324 30.7406C88.7119 30.0265 87.7673 29.6082 86.7663 29.6082H22.3202L19.6138 20.2239C19.2431 18.9392 17.9567 18.0424 16.4845 18.0424H3.23319C1.44761 18.0424 0 19.3477 0 20.9578C0 22.5679 1.44761 23.8733 3.23319 23.8733H13.9846L16.669 33.1818C16.6824 33.2339 16.6975 33.2856 16.7139 33.3365L26.6967 67.9512C27.0674 69.236 28.3538 70.1328 29.826 70.1328H76.7607C78.2329 70.1328 79.5193 69.236 79.89 67.9512L89.8957 33.2572C90.1474 32.3845 89.9362 31.455 89.324 30.7406ZM74.2608 64.3026H32.3259L24.0019 35.4395H82.5852L74.2608 64.3026Z" fill="#FFA892"/>
<path d="M40.6002 20.5446C41.2314 21.1133 42.0586 21.3978 42.8859 21.3978C43.7136 21.3978 44.5413 21.1129 45.1728 20.5434C46.4351 19.4044 46.4347 17.5584 45.1716 16.4202L35.0034 7.2555C33.7403 6.11731 31.6935 6.1177 30.4308 7.25628C29.1685 8.39526 29.169 10.2413 30.4316 11.3795L40.6002 20.5446Z" fill="#FFA892"/>
<path d="M63.7146 21.3977C64.5423 21.3977 65.3704 21.1128 66.0019 20.5429L76.155 11.3794C77.4173 10.2404 77.416 8.39434 76.1529 7.25653C74.8898 6.11834 72.8425 6.1195 71.5807 7.25848L61.4276 16.422C60.1654 17.561 60.1667 19.407 61.4298 20.5452C62.0609 21.1135 62.8877 21.3977 63.7146 21.3977Z" fill="#FFA892"/>
<path d="M53.2959 18.7799C53.2964 18.7799 53.2964 18.7799 53.2968 18.7799C55.0819 18.7799 56.5295 17.4749 56.53 15.8652L56.5334 2.91624C56.5339 1.30613 55.0867 0.000388729 53.3011 0C53.3007 0 53.3007 0 53.3007 0C51.5151 0 50.0675 1.30496 50.067 2.91469L50.0636 15.8636C50.0632 17.4737 51.5103 18.7795 53.2959 18.7799Z" fill="#FFA892"/>
</svg>
