<svg width="90" height="90" viewBox="0 0 90 90" fill="none" xmlns="http://www.w3.org/2000/svg">
<g clip-path="url(#clip0_1_12923)">
<g clip-path="url(#clip1_1_12923)">
<path d="M83.4597 75.3812H19.0672C17.8399 75.3812 17.848 74.0507 18.542 73.4513L32.8641 61.1511H78.7368C79.3072 61.1511 79.7802 60.6363 79.7914 60.0669L80.3654 30.4463C80.3754 29.919 79.9894 29.4496 79.4673 29.3714L69.3355 27.8472C65.3961 33.4658 58.9069 36.8833 51.9786 36.8833C47.1438 36.8833 42.4152 35.2099 38.6638 32.1743C35.4664 29.5867 33.0831 26.1021 31.8254 22.2223L25.0706 21.21L25.1004 21.2021L20.6529 3.94673C20.3415 2.73698 19.2524 1.92297 18.0049 1.92297H6.54004V7.30735H15.886L27.9918 57.9841L15.0225 69.2376C10.2895 72.985 13.0376 80.9579 19.0672 80.9579H30.1736C29.5659 81.7271 29.2117 82.9378 29.2117 84.1245C29.2117 87.383 31.8739 90 35.1578 90C38.4417 90 41.1037 87.3955 41.1037 84.137C41.1037 82.9503 40.7493 81.7273 40.1418 80.9581H62.9767C62.3691 81.7273 62.0149 82.938 62.0149 84.1247C62.0149 87.3832 64.677 90.0002 67.9609 90.0002C71.2448 90.0002 73.907 87.3957 73.907 84.1372C73.907 82.9505 73.5526 81.7275 72.9451 80.9583H83.46V75.3812H83.4597Z" fill="#317865"/>
<path d="M51.9788 0C43.3174 0 36.271 7.03892 36.271 15.691C36.271 24.3431 43.3174 31.3821 51.9788 31.3821C60.6401 31.3821 67.6865 24.3431 67.6865 15.691C67.6865 7.03892 60.6399 0 51.9788 0ZM51.0073 23.1767C49.9119 24.3435 47.9553 24.292 46.9238 23.0644L42.1938 17.4373L46.3771 13.9098L49.1281 17.1825L57.3754 8.39732L61.3593 12.1495L51.0073 23.1767Z" fill="#317865"/>
</g>
</g>
<defs>
<clipPath id="clip0_1_12923">
<rect width="90" height="90" fill="white"/>
</clipPath>
<clipPath id="clip1_1_12923">
<rect width="90" height="90" fill="white"/>
</clipPath>
</defs>
</svg>
