<svg width="90" height="90" viewBox="0 0 90 90" fill="none" xmlns="http://www.w3.org/2000/svg">
<g clip-path="url(#clip0_1714_420)">
<path d="M83.9196 75.3811H19.5271C18.2999 75.3811 18.308 74.0506 19.002 73.4512L33.324 61.151H79.1968C79.7671 61.151 80.2402 60.6362 80.2513 60.0668L80.8253 30.4462C80.8353 29.9189 80.4494 29.4495 79.9273 29.3712L69.7955 27.8471C65.856 33.4657 59.3669 36.8832 52.4385 36.8832C47.6038 36.8832 42.8751 35.2098 39.1238 32.1742C35.9264 29.5866 33.543 26.102 32.2854 22.2221L25.5305 21.2099L25.5603 21.202L21.1128 3.94661C20.8015 2.73685 19.7123 1.92285 18.4649 1.92285H7V7.30723H16.3459L28.4517 57.984L15.4825 69.2375C10.7494 72.9849 13.4976 80.9578 19.5271 80.9578H30.6336C30.0259 81.727 29.6717 82.9377 29.6717 84.1244C29.6717 87.3829 32.3339 89.9999 35.6178 89.9999C38.9016 89.9999 41.5636 87.3954 41.5636 84.1369C41.5636 82.9502 41.2092 81.7272 40.6018 80.958H63.4367C62.829 81.7272 62.4748 82.9379 62.4748 84.1245C62.4748 87.3831 65.137 90.0001 68.4209 90.0001C71.7048 90.0001 74.367 87.3956 74.367 84.137C74.367 82.9504 74.0126 81.7273 73.4051 80.9582H83.92V75.3811H83.9196Z" fill="#317865"/>
<g clip-path="url(#clip1_1714_420)">
<path d="M51.96 1C43.4465 1 36.46 7.9865 36.46 16.5C36.46 25.0135 43.4465 32 51.96 32C60.4735 32 67.46 25.0135 67.46 16.5C67.46 7.9865 60.4735 1 51.96 1ZM59.6664 21.6379L57.0978 24.2064L51.96 19.0685L46.8221 24.2064L44.2536 21.6379L49.3914 16.5L44.2536 11.3621L46.8221 8.79359L51.96 13.9315L57.0978 8.79359L59.6664 11.3621L54.5285 16.5L59.6664 21.6379Z" fill="#317865"/>
</g>
</g>
<defs>
<clipPath id="clip0_1714_420">
<rect width="90" height="90" fill="white"/>
</clipPath>
<clipPath id="clip1_1714_420">
<rect width="31" height="31" fill="white" transform="translate(36.46 1)"/>
</clipPath>
</defs>
</svg>
