<svg width="90" height="90" viewBox="0 0 90 90" fill="none" xmlns="http://www.w3.org/2000/svg">
<g clip-path="url(#clip0_1614_1436)">
<path d="M85.9367 54.0382C81.5098 52.4359 76.5954 52.8059 72.4527 55.0538C72.3986 55.0805 56.2327 62.3865 56.2327 62.3865C55.0842 63.2467 53.7521 63.7011 52.3804 63.7011H42.209C40.9456 63.7011 39.9213 62.678 39.9213 61.4161C39.9213 60.1542 40.9456 59.1311 42.209 59.1311H52.3804C55.5598 59.1311 55.6294 52.5898 52.5152 52.3305L38.3386 52.1676C35.8371 52.1399 33.3334 50.5321 30.6965 50.4717C28.0127 50.4103 25.4736 51.0948 23.2173 52.5582C20.0754 54.5961 17.9304 57.8346 16.4927 61.2301L24.1627 80.599H46.2167C48.2071 80.599 50.1727 80.0767 51.9006 79.0882L86.1267 59.5086C87.1673 58.6263 87.9711 57.5959 87.6181 56.0136C87.4192 55.124 86.7808 54.3442 85.9367 54.0382Z" fill="#317865"/>
<path d="M2.29785 63.6034L12.7505 90L21.1407 85.3931L10.6879 58.9967L2.29785 63.6034Z" fill="#317865"/>
<path d="M65.2852 0C54.0629 0 44.9656 9.22058 44.9656 20.5946C44.9656 31.9687 54.0631 41.1892 65.2852 41.1892C76.5073 41.1892 85.6048 31.9687 85.6048 20.5946C85.605 9.22058 76.5075 0 65.2852 0ZM67.5942 30.8748V34.2888H62.8923V31.1525C61.0758 30.8825 59.4613 30.1596 58.0669 29.0638L59.7531 24.3348C61.1206 25.4092 63.0744 26.391 64.7544 26.391C66.0429 26.391 66.8756 25.7996 66.8756 24.8842C66.8756 24.2892 66.6842 23.5763 64.4 22.6454C61.5408 21.5171 58.6137 19.8621 58.6137 16.1552C58.6137 13.3565 60.3242 11.1081 63.1004 10.2215V6.90019H67.7733V9.92712C69.195 10.149 70.7158 10.8423 71.9669 11.6494L70.2142 16.3038C68.9544 15.4637 67.1679 14.6483 65.7344 14.6483C64.1673 14.6483 63.9981 15.4513 63.9981 15.7965C63.9981 16.3371 64.1998 16.8037 66.809 17.8892C69.3606 18.936 72.289 20.6531 72.289 24.6748C72.2892 27.5481 70.4569 29.9512 67.5942 30.8748Z" fill="#317865"/>
</g>
<defs>
<clipPath id="clip0_1614_1436">
<rect width="90" height="90" fill="white"/>
</clipPath>
</defs>
</svg>
