<svg width="130" height="48" viewBox="0 0 130 48" fill="none" xmlns="http://www.w3.org/2000/svg">
<path d="M0.625 12C0.625 5.71776 5.71776 0.625 12 0.625H129.375V36C129.375 42.2822 124.282 47.375 118 47.375H0.625V12Z" stroke="#F84F31" stroke-width="1.25"/>
<path d="M44.068 29.66C43.076 29.66 42.2333 29.4893 41.54 29.148C40.8573 28.796 40.3347 28.3 39.972 27.66C39.6093 27.0093 39.4067 26.2307 39.364 25.324C39.3533 24.8867 39.348 24.4173 39.348 23.916C39.348 23.4147 39.3533 22.9347 39.364 22.476C39.4067 21.58 39.6093 20.8067 39.972 20.156C40.3453 19.5053 40.8733 19.0093 41.556 18.668C42.2493 18.316 43.0867 18.14 44.068 18.14C44.7933 18.14 45.444 18.236 46.02 18.428C46.596 18.62 47.0867 18.8867 47.492 19.228C47.8973 19.5587 48.212 19.948 48.436 20.396C48.66 20.844 48.7773 21.3293 48.788 21.852C48.7987 21.948 48.7667 22.028 48.692 22.092C48.628 22.156 48.548 22.188 48.452 22.188H46.932C46.8147 22.188 46.7187 22.1613 46.644 22.108C46.5693 22.044 46.516 21.9427 46.484 21.804C46.3133 21.1 46.02 20.62 45.604 20.364C45.188 20.108 44.6707 19.98 44.052 19.98C43.3373 19.98 42.7667 20.1827 42.34 20.588C41.9133 20.9827 41.684 21.6387 41.652 22.556C41.62 23.4307 41.62 24.3267 41.652 25.244C41.684 26.1613 41.9133 26.8227 42.34 27.228C42.7667 27.6227 43.3373 27.82 44.052 27.82C44.6707 27.82 45.188 27.692 45.604 27.436C46.02 27.1693 46.3133 26.6893 46.484 25.996C46.516 25.8467 46.5693 25.7453 46.644 25.692C46.7187 25.6387 46.8147 25.612 46.932 25.612H48.452C48.548 25.612 48.628 25.644 48.692 25.708C48.7667 25.772 48.7987 25.852 48.788 25.948C48.7773 26.4707 48.66 26.956 48.436 27.404C48.212 27.852 47.8973 28.2467 47.492 28.588C47.0867 28.9187 46.596 29.18 46.02 29.372C45.444 29.564 44.7933 29.66 44.068 29.66ZM52.9095 29.66C52.3548 29.66 51.8535 29.5533 51.4055 29.34C50.9575 29.116 50.6002 28.8227 50.3335 28.46C50.0775 28.0867 49.9495 27.6707 49.9495 27.212C49.9495 26.4653 50.2482 25.8733 50.8455 25.436C51.4535 24.988 52.2535 24.6893 53.2455 24.54L55.4375 24.22V23.884C55.4375 23.436 55.3255 23.0893 55.1015 22.844C54.8775 22.5987 54.4935 22.476 53.9495 22.476C53.5655 22.476 53.2508 22.556 53.0055 22.716C52.7708 22.8653 52.5948 23.068 52.4775 23.324C52.3922 23.4627 52.2695 23.532 52.1095 23.532H50.8455C50.7282 23.532 50.6375 23.5 50.5735 23.436C50.5202 23.372 50.4935 23.2867 50.4935 23.18C50.5042 23.0093 50.5735 22.8013 50.7015 22.556C50.8295 22.3107 51.0322 22.076 51.3095 21.852C51.5868 21.6173 51.9442 21.42 52.3815 21.26C52.8188 21.1 53.3468 21.02 53.9655 21.02C54.6375 21.02 55.2028 21.1053 55.6615 21.276C56.1308 21.436 56.5042 21.6547 56.7815 21.932C57.0588 22.2093 57.2615 22.5347 57.3895 22.908C57.5175 23.2813 57.5815 23.676 57.5815 24.092V29.116C57.5815 29.2227 57.5442 29.3133 57.4695 29.388C57.3948 29.4627 57.3042 29.5 57.1975 29.5H55.9015C55.7842 29.5 55.6882 29.4627 55.6135 29.388C55.5495 29.3133 55.5175 29.2227 55.5175 29.116V28.492C55.3788 28.6947 55.1922 28.8867 54.9575 29.068C54.7228 29.2387 54.4348 29.3827 54.0935 29.5C53.7628 29.6067 53.3682 29.66 52.9095 29.66ZM53.4535 28.14C53.8268 28.14 54.1628 28.06 54.4615 27.9C54.7708 27.74 55.0108 27.4947 55.1815 27.164C55.3628 26.8227 55.4535 26.396 55.4535 25.884V25.548L53.8535 25.804C53.2242 25.9 52.7548 26.0547 52.4455 26.268C52.1362 26.4813 51.9815 26.7427 51.9815 27.052C51.9815 27.2867 52.0508 27.4893 52.1895 27.66C52.3388 27.82 52.5255 27.9427 52.7495 28.028C52.9735 28.1027 53.2082 28.14 53.4535 28.14ZM60.0181 29.5C59.9115 29.5 59.8208 29.4627 59.7461 29.388C59.6715 29.3133 59.6341 29.2227 59.6341 29.116V21.564C59.6341 21.4573 59.6715 21.3667 59.7461 21.292C59.8208 21.2173 59.9115 21.18 60.0181 21.18H61.3301C61.4368 21.18 61.5275 21.2173 61.6021 21.292C61.6768 21.3667 61.7141 21.4573 61.7141 21.564V22.22C61.9915 21.8787 62.3435 21.596 62.7701 21.372C63.2075 21.1373 63.7461 21.02 64.3861 21.02C65.0368 21.02 65.6021 21.1693 66.0821 21.468C66.5621 21.756 66.9301 22.1667 67.1861 22.7C67.4528 23.2333 67.5861 23.8733 67.5861 24.62V29.116C67.5861 29.2227 67.5488 29.3133 67.4741 29.388C67.3995 29.4627 67.3088 29.5 67.2021 29.5H65.7941C65.6875 29.5 65.5968 29.4627 65.5221 29.388C65.4475 29.3133 65.4101 29.2227 65.4101 29.116V24.716C65.4101 24.0973 65.2555 23.612 64.9461 23.26C64.6475 22.908 64.2101 22.732 63.6341 22.732C63.0795 22.732 62.6368 22.908 62.3061 23.26C61.9755 23.612 61.8101 24.0973 61.8101 24.716V29.116C61.8101 29.2227 61.7728 29.3133 61.6981 29.388C61.6235 29.4627 61.5328 29.5 61.4261 29.5H60.0181ZM73.2185 29.66C72.4505 29.66 71.7732 29.516 71.1865 29.228C70.6105 28.94 70.1572 28.524 69.8265 27.98C69.5065 27.4253 69.3305 26.7587 69.2985 25.98C69.2878 25.82 69.2825 25.612 69.2825 25.356C69.2825 25.0893 69.2878 24.8707 69.2985 24.7C69.3305 23.9213 69.5065 23.26 69.8265 22.716C70.1572 22.1613 70.6105 21.74 71.1865 21.452C71.7732 21.164 72.4505 21.02 73.2185 21.02C73.9012 21.02 74.4825 21.116 74.9625 21.308C75.4425 21.5 75.8372 21.74 76.1465 22.028C76.4558 22.316 76.6852 22.62 76.8345 22.94C76.9945 23.2493 77.0798 23.532 77.0905 23.788C77.1012 23.9053 77.0638 24.0013 76.9785 24.076C76.9038 24.14 76.8132 24.172 76.7065 24.172H75.2985C75.1918 24.172 75.1065 24.1453 75.0425 24.092C74.9892 24.0387 74.9358 23.9587 74.8825 23.852C74.7225 23.4253 74.5092 23.1267 74.2425 22.956C73.9865 22.7747 73.6558 22.684 73.2505 22.684C72.7172 22.684 72.2905 22.8547 71.9705 23.196C71.6612 23.5267 71.4958 24.0547 71.4745 24.78C71.4532 25.1853 71.4532 25.5587 71.4745 25.9C71.4958 26.636 71.6612 27.1693 71.9705 27.5C72.2905 27.8307 72.7172 27.996 73.2505 27.996C73.6665 27.996 74.0025 27.9107 74.2585 27.74C74.5145 27.5587 74.7225 27.2547 74.8825 26.828C74.9358 26.7213 74.9892 26.6413 75.0425 26.588C75.1065 26.5347 75.1918 26.508 75.2985 26.508H76.7065C76.8132 26.508 76.9038 26.5453 76.9785 26.62C77.0638 26.684 77.1012 26.7747 77.0905 26.892C77.0798 27.084 77.0265 27.3027 76.9305 27.548C76.8452 27.7827 76.7012 28.028 76.4985 28.284C76.3065 28.5293 76.0612 28.7587 75.7625 28.972C75.4638 29.1747 75.1012 29.34 74.6745 29.468C74.2585 29.596 73.7732 29.66 73.2185 29.66ZM79.1591 29.5C79.0525 29.5 78.9618 29.4627 78.8871 29.388C78.8125 29.3133 78.7751 29.2227 78.7751 29.116V18.524C78.7751 18.4173 78.8125 18.3267 78.8871 18.252C78.9618 18.1773 79.0525 18.14 79.1591 18.14H80.4871C80.5938 18.14 80.6845 18.1773 80.7591 18.252C80.8338 18.3267 80.8711 18.4173 80.8711 18.524V29.116C80.8711 29.2227 80.8338 29.3133 80.7591 29.388C80.6845 29.4627 80.5938 29.5 80.4871 29.5H79.1591ZM86.5775 29.66C85.3935 29.66 84.4548 29.3187 83.7615 28.636C83.0682 27.9533 82.6948 26.9827 82.6415 25.724C82.6308 25.6173 82.6255 25.484 82.6255 25.324C82.6255 25.1533 82.6308 25.02 82.6415 24.924C82.6842 24.124 82.8655 23.4307 83.1855 22.844C83.5162 22.2573 83.9695 21.8093 84.5455 21.5C85.1215 21.18 85.7988 21.02 86.5775 21.02C87.4415 21.02 88.1668 21.2013 88.7535 21.564C89.3402 21.916 89.7828 22.412 90.0815 23.052C90.3802 23.6813 90.5295 24.412 90.5295 25.244V25.58C90.5295 25.6867 90.4922 25.7773 90.4175 25.852C90.3428 25.9267 90.2468 25.964 90.1295 25.964H84.8175C84.8175 25.964 84.8175 25.98 84.8175 26.012C84.8175 26.044 84.8175 26.0707 84.8175 26.092C84.8282 26.4653 84.8975 26.812 85.0255 27.132C85.1642 27.4413 85.3615 27.692 85.6175 27.884C85.8842 28.076 86.1988 28.172 86.5615 28.172C86.8602 28.172 87.1108 28.1293 87.3135 28.044C87.5162 27.948 87.6815 27.8413 87.8095 27.724C87.9375 27.6067 88.0282 27.5107 88.0815 27.436C88.1775 27.308 88.2522 27.2333 88.3055 27.212C88.3695 27.18 88.4602 27.164 88.5775 27.164H89.9535C90.0602 27.164 90.1455 27.196 90.2095 27.26C90.2842 27.324 90.3162 27.404 90.3055 27.5C90.2948 27.6707 90.2042 27.8787 90.0335 28.124C89.8735 28.3693 89.6388 28.6093 89.3295 28.844C89.0202 29.0787 88.6308 29.276 88.1615 29.436C87.7028 29.5853 87.1748 29.66 86.5775 29.66ZM84.8175 24.62H88.3535V24.572C88.3535 24.156 88.2842 23.7933 88.1455 23.484C88.0068 23.1747 87.8042 22.9293 87.5375 22.748C87.2708 22.5667 86.9508 22.476 86.5775 22.476C86.2042 22.476 85.8842 22.5667 85.6175 22.748C85.3508 22.9293 85.1482 23.1747 85.0095 23.484C84.8815 23.7933 84.8175 24.156 84.8175 24.572V24.62Z" fill="#F84F31"/>
</svg>
