<svg width="120" height="120" viewBox="0 0 120 120" fill="none" xmlns="http://www.w3.org/2000/svg">
<g clip-path="url(#clip0_1_19996)">
<path d="M20.4283 49.1693L60 62.2865L99.5716 49.1693L60 36.0522L20.4283 49.1693Z" fill="#FFA892"/>
<path d="M109.237 53.373L65.3662 67.9153L76.1114 84.9837L119.982 70.4412L109.237 53.373Z" fill="#FFA892"/>
<path d="M56.4844 78.1735L46.9043 93.3907L12.7706 82.076V105.51L56.4844 120V78.1735Z" fill="#FFA892"/>
<path d="M73.0957 93.3907L63.5156 78.1735V120L107.229 105.51V82.076L73.0957 93.3907Z" fill="#FFA892"/>
<path d="M43.8886 84.9837L54.6338 67.9153L10.763 53.373L0.0175781 70.4412L43.8886 84.9837Z" fill="#FFA892"/>
<path d="M56.4844 0H63.5156V23.4783H56.4844V0Z" fill="#FFA892"/>
<path d="M23.4187 10.7435L29.5078 7.22791L41.2469 27.5601L35.1578 31.0757L23.4187 10.7435Z" fill="#FFA892"/>
<path d="M78.7517 27.5624L90.4909 7.23024L96.5799 10.7459L84.8408 31.0781L78.7517 27.5624Z" fill="#FFA892"/>
</g>
<defs>
<clipPath id="clip0_1_19996">
<rect width="120" height="120" fill="white"/>
</clipPath>
</defs>
</svg>
