<svg width="74" height="90" viewBox="0 0 74 90" fill="none" xmlns="http://www.w3.org/2000/svg">
<path d="M48.8031 27.2754C52.9714 30.0325 58.6801 28.8246 61.5278 24.5818C64.3755 20.339 63.3001 14.6435 59.1305 11.8865C54.9622 9.12804 49.2522 10.3359 46.4058 14.5787C43.5582 18.8215 44.6335 24.5183 48.8031 27.2754ZM64.9871 3.15875C73.8833 9.04337 76.1793 21.1989 70.1015 30.2534C64.025 39.3092 51.8427 41.8877 42.9465 36.0031C34.049 30.1171 31.7543 17.9616 37.8308 8.9071C43.9073 -0.148705 56.0896 -2.7272 64.9871 3.15875Z" fill="#FFA892"/>
<path d="M46.6479 24.927L52.1634 28.5758L12.7008 88.5333C11.6867 90.0454 9.62793 90.4556 8.10481 89.4474C6.58302 88.4393 6.16993 86.398 7.18401 84.8871L46.6479 24.927Z" fill="#FFA892"/>
<path d="M7.43211 71.8154L19.0387 79.5548L13.2448 88.1873L1.61546 80.4346C-0.0542386 79.3206 -0.501981 77.0769 0.613376 75.4152L2.3577 72.8142C3.47972 71.1433 5.75441 70.6961 7.43211 71.8154Z" fill="#FFA892"/>
</svg>
