<svg width="60" height="60" viewBox="0 0 60 60" fill="none" xmlns="http://www.w3.org/2000/svg">
<circle cx="30" cy="30" r="30" fill="#317865"/>
<path d="M49.3085 29.794C47.6917 27.3862 44.9788 27.672 44.8961 27.6532C44.5391 27.6532 44.1879 27.6935 43.8466 27.7697L45.7194 20.5214C46.652 16.9123 44.9652 13.1282 41.6556 11.4131C38.0169 9.5277 34.1663 8.57162 30.2081 8.57153C26.2524 8.57162 22.4017 9.5277 18.7631 11.413C15.4534 13.1281 13.7667 16.9122 14.6993 20.5212L16.5721 27.7696C15.8698 27.6129 15.3914 27.6627 15.1286 27.6531C11.6914 27.6531 9.35078 31.1376 10.6492 34.3131C12.3399 38.4476 15.2723 41.9112 19.0944 44.2692L15.7805 48.7604C15.2316 49.5044 15.3897 50.5524 16.1338 51.1015C16.8825 51.6539 17.9296 51.4874 18.4749 50.7482L22.1162 45.8133C24.6551 46.8627 27.3825 47.4075 30.1706 47.4075H30.2482C33.0362 47.4075 35.7636 46.8627 38.3025 45.8133L41.9438 50.7482C42.4912 51.4901 43.5391 51.6518 44.285 51.1015C45.029 50.5524 45.1871 49.5044 44.6382 48.7604L41.3243 44.2692C45.1411 41.9145 48.0766 38.4534 49.7695 34.3131C50.3794 32.8216 50.207 31.1321 49.3085 29.794ZM20.3037 14.3859C23.4616 12.7495 26.7939 11.9198 30.2106 11.9197C33.6247 11.9198 36.9571 12.7495 40.1149 14.3858C42.0525 15.3899 43.024 17.5684 42.4774 19.6838L39.5704 30.9348C37.2879 32.628 33.8456 33.8635 30.2093 33.8635C26.5693 33.8635 23.1259 32.6245 20.8481 30.9348L17.9411 19.6837C17.3946 17.5684 18.3661 15.3898 20.3037 14.3859ZM46.6702 33.046C43.9489 39.7011 37.4662 44.0593 30.2482 44.0593H30.1706C22.9376 44.0593 16.4637 39.6866 13.7486 33.046C13.3494 32.07 14.0663 31.0013 15.1287 31.0013C15.3114 31.0325 16.112 30.8327 16.7238 31.6063C18.8591 34.3061 23.9899 37.2117 30.2094 37.2117C36.4288 37.2117 41.5597 34.306 43.695 31.6062C43.999 31.2218 44.4368 31.0013 44.896 31.0013C45.0719 31.0325 45.9682 30.8257 46.5287 31.6605C46.8084 32.0769 46.86 32.5819 46.6702 33.046Z" fill="#FFA892"/>
</svg>
