<svg width="73" height="72" viewBox="0 0 73 72" fill="none" xmlns="http://www.w3.org/2000/svg">
<path d="M13.1816 0L12.6719 2.36133C9.10499 18.7438 2.87642 47.3186 1.35742 54.3691L0.578125 57.9961H19.1523L16.9082 68.3672L16.123 72H34.8086L38.834 53.4551L38.8457 53.373C38.9084 52.9738 39.4562 51.9375 40.7559 51.9375H49.1113C60.8938 51.9375 70.1004 44.8494 72.4785 33.7324C73.6207 28.3855 72.8756 23.3846 69.9063 19.6875L69.9004 19.6816C67.5448 16.7503 64.0641 14.888 60.2559 14.2383H60.2383L60.2207 14.2324C60.2207 14.2324 58.2901 14.168 57.3731 14.1035V14.0391L57.3672 13.9863C57.0881 9.34336 54.8614 5.6328 51.8594 3.32812C48.8574 1.02345 45.1943 0 41.6992 0H13.1816ZM18.0156 6H41.6992C43.9852 6 46.4299 6.72461 48.2031 8.08594C49.9017 9.38998 51.0631 11.1925 51.3203 14.0039H30.3203C29.3723 14.0039 28.6172 14.6511 28.4102 15.5391H28.4043L25.2168 30.0996L25.1875 30.0938L20.4473 51.9961H8.01367C9.90209 43.2688 14.6592 21.4143 18.0156 6ZM56.8398 20.0273C58.365 20.0842 59.2603 20.1612 59.2656 20.1621C61.7745 20.5955 63.9244 21.8235 65.2246 23.4434C66.9071 25.5357 67.4986 28.3064 66.6074 32.4785H66.6133C64.7493 41.1915 58.6768 45.9375 49.1113 45.9375H40.7559C36.4755 45.9375 33.4473 49.0606 32.916 52.4414L29.9688 66H23.5586L24.0273 63.832L26.5879 51.9961L29.6172 37.9863H33.4785C44.835 37.9863 54.1927 31.8373 56.8398 20.0273Z" fill="#317865"/>
</svg>
