<svg width="288" height="114" viewBox="0 0 288 114" fill="none" xmlns="http://www.w3.org/2000/svg">
<path d="M253.612 80.9638V43.0068" stroke="#5E5E5E" stroke-width="4" stroke-miterlimit="10"/>
<path d="M248.175 81.7308V29.3086" stroke="#5E5E5E" stroke-width="4" stroke-miterlimit="10"/>
<path d="M260.502 81.9856V63.5747" stroke="#5E5E5E" stroke-width="4" stroke-miterlimit="10"/>
<path d="M246.06 34.4791C246.06 34.4791 244.971 32.7591 241.336 28.9511C237.701 25.143 222.609 14.8952 222.609 14.8952C222.609 14.8952 231.151 18.8443 233.879 20.8946C236.608 22.9448 240.243 25.4801 240.243 25.4801C240.243 25.4801 230.062 15.8481 228.973 15.2151C227.884 14.5822 239.336 22.7831 239.336 22.7831C239.336 22.7831 234.98 15.2151 232.79 12.6764C230.6 10.1377 226.427 4.1521 226.427 4.1521C226.427 4.1521 238.243 17.9121 238.79 18.6861C239.336 19.4601 241.696 22.9483 241.696 22.9483L237.515 13.4745L242.607 21.2111C242.607 21.2111 235.333 8.10466 234.972 7.4717C234.612 6.83874 240.061 13.6293 240.061 13.6293L235.333 1.31066L246.242 20.7398L245.518 13.1718L247.498 21.0666L248.064 1.62714L249.339 20.8911C249.339 20.8911 251.319 8.5725 251.715 6.04754C252.111 3.52258 252.258 0.835938 252.258 0.835938C252.258 0.835938 251.893 17.575 251.893 18.0359C251.893 18.4969 251.533 22.3015 251.533 22.3015C251.533 22.3015 254.257 15.1945 254.986 13.2991C255.715 11.4036 256.439 4.9261 256.804 3.9801C257.168 3.0341 254.986 18.5107 254.824 19.1402C254.501 20.1715 254.076 21.1763 253.553 22.1433C253.006 23.0893 257.552 16.457 259.188 13.6121L263.916 5.40082C263.916 5.40082 261.187 13.3128 260.459 14.7198C259.73 16.1267 255.006 23.7223 255.006 23.7223C255.006 23.7223 262.098 16.457 265.187 14.5615C268.276 12.6661 273.899 9.03346 273.899 9.03346C273.899 9.03346 264.791 17.5612 262.989 19.1402C261.187 20.7191 255.901 26.2472 255.901 26.2472C255.901 26.2472 265.009 21.1939 265.536 20.7226C266.062 20.2513 272.616 16.6324 272.616 16.6324C272.616 16.6324 259.417 25.6899 258.796 26.2644C253.525 31.163 251.707 33.5297 250.614 34.4791C249.521 35.4286 247.7 35.8999 246.06 34.4791Z" fill="#317865"/>
<path d="M252.337 48.3253C252.337 48.3253 251.565 47.0937 248.991 44.414C246.417 41.7342 235.745 34.4724 235.745 34.4724C235.745 34.4724 241.791 37.2657 243.72 38.7173C245.648 40.169 248.222 41.9578 248.222 41.9578C248.222 41.9578 241.019 35.1432 240.247 34.696C239.475 34.2488 247.577 40.0589 247.577 40.0589C247.577 40.0589 244.492 34.696 242.948 32.9072C241.403 31.1184 238.445 26.8734 238.445 26.8734C238.445 26.8734 246.805 36.5949 247.193 37.1521L249.252 40.169L246.294 33.4645L249.898 38.9409C249.898 38.9409 244.75 29.6529 244.496 29.2195C244.243 28.7861 248.096 33.578 248.096 33.578L244.754 24.8645L252.468 38.6038L251.953 33.2443L253.37 38.8274L253.766 25.0881L254.665 38.7173C254.665 38.7173 256.083 30.0038 256.34 28.215C256.598 26.4262 256.736 24.5273 256.736 24.5273C256.736 24.5273 256.479 36.3713 256.479 36.7049C256.479 37.0386 256.222 39.7218 256.222 39.7218L258.665 33.3544C259.18 32.0128 259.695 27.4341 259.952 26.7633C260.209 26.0925 258.665 37.0421 258.538 37.4893C258.309 38.2183 258.007 38.9285 257.635 39.6117C257.239 40.2791 260.467 35.5904 261.623 33.578L264.965 27.7678C264.965 27.7678 263.037 33.3544 262.522 34.3589C262.007 35.3633 258.665 40.7263 258.665 40.7263C258.665 40.7263 263.682 35.5904 265.868 34.2488C268.054 32.9072 272.042 30.3375 272.042 30.3375C272.042 30.3375 265.583 36.3713 264.3 37.4893C263.017 38.6073 259.287 42.5151 259.287 42.5151C259.287 42.5151 265.714 38.9409 266.102 38.6038C266.49 38.2667 271.115 35.7005 271.115 35.7005C271.115 35.7005 261.782 42.1057 261.342 42.5151C257.612 45.9792 256.329 47.6545 255.556 48.3253C254.784 48.9961 253.493 49.3297 252.337 48.3253Z" fill="#317865"/>
<path d="M258.883 64.2764C258.883 64.2764 258.091 63.0483 255.536 60.3651C252.982 57.6819 242.29 50.4235 242.29 50.4235C242.29 50.4235 248.337 53.2168 250.266 54.6685C252.194 56.1202 254.764 57.909 254.764 57.909C254.764 57.909 247.565 51.0943 246.793 50.6471C246.021 50.1999 254.123 56.0101 254.123 56.0101C254.123 56.0101 251.038 50.6471 249.494 48.8583C247.949 47.0695 244.991 42.828 244.991 42.828C244.991 42.828 253.351 52.546 253.739 53.1033L255.794 56.1202L252.836 49.4191L256.439 54.8921C256.439 54.8921 251.291 45.6041 251.038 45.1741C250.784 44.7441 254.638 49.5291 254.638 49.5291L251.295 40.8156L259.009 54.555L258.495 49.1955L259.908 54.7786L260.304 41.0392L261.203 54.6685C261.203 54.6685 262.617 45.955 262.874 44.1662C263.132 42.3774 263.27 40.4819 263.27 40.4819C263.27 40.4819 263.013 52.3224 263.013 52.6561C263.013 52.9898 262.756 55.673 262.756 55.673L265.199 49.3055C265.714 47.9639 266.228 43.3853 266.486 42.7145C266.743 42.0437 265.199 52.9932 265.072 53.4404C264.844 54.1697 264.542 54.8799 264.169 55.5629C263.773 56.2337 267.001 51.5415 268.157 49.5291L271.483 43.7121C271.483 43.7121 269.555 49.2987 269.04 50.3031C268.525 51.3076 265.183 56.674 265.183 56.674C265.183 56.674 270.2 51.5347 272.386 50.1931C274.572 48.8515 278.556 46.2887 278.556 46.2887C278.556 46.2887 272.129 52.3121 270.842 53.4404C269.555 54.5687 265.825 58.4663 265.825 58.4663C265.825 58.4663 272.256 54.8921 272.644 54.555C273.032 54.2179 277.657 51.6516 277.657 51.6516C277.657 51.6516 268.323 58.0603 267.884 58.4663C264.153 61.9303 262.866 63.6056 262.098 64.2764C261.33 64.9472 260.039 65.2809 258.883 64.2764Z" fill="#317865"/>
<path d="M267.021 94.2799C267.021 101.738 264.763 108.322 261.314 112.299H246.013C242.564 108.322 240.306 101.738 240.306 94.2799C240.306 93.6297 240.306 92.983 240.358 92.3466C240.441 90.7323 240.638 89.124 240.948 87.5306C241.063 86.9458 241.189 86.3713 241.344 85.8106C241.463 85.3428 241.589 84.8853 241.74 84.4346C242.327 82.4486 243.172 80.527 244.258 78.707H263.112C264.199 80.527 265.044 82.4486 265.631 84.4346C265.769 84.8853 265.896 85.3428 266.027 85.8106C266.169 86.3713 266.296 86.9458 266.423 87.5306C266.733 89.124 266.93 90.7323 267.013 92.3466C267.005 92.9727 267.021 93.6194 267.021 94.2799Z" fill="white" stroke="#263238" stroke-miterlimit="10"/>
<path d="M265.611 84.4243H241.728C241.589 84.875 241.463 85.3325 241.332 85.8003H265.995C265.884 85.3359 265.749 84.875 265.611 84.4243ZM266.379 87.5203H240.936C240.626 89.1136 240.429 90.722 240.346 92.3363H266.957C266.878 90.7222 266.685 89.1139 266.379 87.5203Z" fill="#263238" stroke="#263238" stroke-miterlimit="10"/>
<path d="M99.4294 84.5652C98.1707 85.4886 97.0036 86.5024 95.9407 87.5958C94.3567 89.2608 92.6737 93.8566 92.6737 93.8566L91.4342 105.594L92.3371 106.574C92.3371 106.574 94.8121 109.216 95.8258 109.705C96.8396 110.193 97.5168 110.974 97.1802 109.705C96.8436 108.435 96.2773 108.04 95.715 105.976C95.1526 103.912 94.8121 102.749 94.8121 102.749C94.8121 102.749 95.6041 103.141 95.9407 101.868C96.2773 100.596 96.3921 99.911 96.503 99.5189C96.6139 99.1267 100.669 94.7269 103.595 92.2949C106.522 89.8628 108.89 86.526 108.438 84.4689C107.987 82.4117 103.936 83.2958 102.582 83.2958C101.227 83.2958 99.4294 84.5652 99.4294 84.5652Z" fill="#263238" stroke="#263238" stroke-linecap="round" stroke-linejoin="round"/>
<path d="M93.1251 107.063C93.1251 107.063 93.7785 107.555 96.5069 108.9C99.2354 110.245 100.198 109.97 100.249 110.668C100.301 111.366 100.677 112.061 97.6831 112.433C94.6893 112.804 92.1193 112.618 88.6384 112.202C85.1576 111.786 84.3616 112.295 83.93 110.991C83.4983 109.687 85.0031 107.273 85.0031 107.273C85.0031 107.273 88.3177 106.994 89.9254 106.485C91.5332 105.976 93.1251 107.063 93.1251 107.063Z" fill="white" stroke="#263238" stroke-linecap="round" stroke-linejoin="round"/>
<path d="M82.2192 53.8666C82.2192 53.8666 82.7816 64.4308 83.6805 68.638C84.5794 72.8451 84.6784 78.208 84.7932 80.9463C84.9081 83.6845 83.7795 85.9343 84.2309 88.9649C84.6824 91.9956 84.6784 104.713 84.6784 104.713C84.6784 104.713 84.2309 106.475 84.3418 107.063C84.4527 107.651 84.6784 108.236 87.1574 107.844C89.6363 107.451 90.0838 107.063 90.761 106.963C91.4381 106.863 92.7885 107.747 93.137 107.063C93.4854 106.378 93.8141 106.278 93.5884 105.301C93.3627 104.325 92.6855 103.54 92.6855 103.151C92.6855 102.763 94.8239 88.8686 94.9388 83.6845C94.9422 81.3631 95.0889 79.0435 95.3783 76.7357C95.3783 76.4433 95.8416 65.4044 95.8416 65.4044C95.8416 65.4044 99.4294 83.7774 99.4294 84.5617C99.4294 85.3461 102.696 87.3137 105.171 87.1039C107.646 86.8941 108.339 86.9078 108.438 84.462C108.537 82.0161 108.003 61.0046 107.104 57.3857C106.628 55.392 105.988 53.4307 105.187 51.5171C105.187 51.5171 105.302 53.5811 94.3804 53.9629C83.4587 54.3448 82.8964 52.7865 82.8964 52.7865L82.2192 53.8666Z" fill="#263238" stroke="#263238" stroke-linecap="round" stroke-linejoin="round"/>
<path d="M74.1567 60.3682C74.1567 60.437 74.1329 60.4989 74.125 60.5574C74.1329 60.4989 74.1448 60.437 74.1567 60.3682Z" stroke="#263238" stroke-linecap="round" stroke-linejoin="round"/>
<path d="M74.1171 60.5918C74.1171 60.6606 74.0973 60.7225 74.0854 60.7775C74.0973 60.7225 74.1052 60.6606 74.1171 60.5918Z" stroke="#263238" stroke-linecap="round" stroke-linejoin="round"/>
<path d="M123.803 32.7281C120.176 31.0287 118.723 30.4611 117.562 29.8935C116.235 29.1939 114.977 28.4 113.8 27.5199C113.076 26.9558 111.844 25.1119 109.306 22.9206C106.767 20.7294 101.326 18.827 99.6591 18.827C97.992 18.827 96.9743 18.5106 96.6852 18.5725C96.3961 18.6344 86.4565 20.2925 86.4565 20.2925C86.4565 20.2925 74.7072 23.1924 73.4717 25.019C72.2362 26.8457 72.5292 34.7852 72.2401 36.027C71.951 37.2689 70.7868 43.9666 70.7868 43.9666C70.7868 43.9666 69.773 50.2687 70.0621 52.9106C70.1334 53.5539 70.173 54.345 70.1968 55.181C71.7485 55.6104 73.3975 55.7037 75.0002 55.4527C75.4279 53.0035 75.8794 50.4854 76.0853 49.6357C76.5169 47.8056 77.8237 42.1984 77.8237 42.1984L80.0017 37.9775L82.1045 49.9487C82.0654 50.8734 82.0892 51.7992 82.1758 52.7214C82.3223 53.7947 82.3936 54.548 82.3936 54.548C82.3936 54.548 86.0209 57.1968 93.4182 57.0695C100.815 56.9422 105.243 54.6615 105.607 54.1077C105.893 53.6618 106.066 53.168 106.114 52.6594C106.114 52.4083 105.461 43.2717 105.461 42.7041C105.461 42.1365 106.039 35.2049 106.039 34.8265C106.039 34.4481 106.403 31.6754 106.403 31.6754L114.901 36.4914C114.901 36.4914 119.305 37.7574 123.075 38.7653C126.845 39.7732 129.015 40.4578 129.015 40.4578L130.753 36.9937C128.607 35.3731 126.279 33.944 123.803 32.7281Z" fill="#317865" stroke="#263238" stroke-linecap="round" stroke-linejoin="round"/>
<path d="M74.6478 57.4717C74.6478 57.5302 74.628 57.5852 74.6201 57.6437C74.6161 57.5921 74.6399 57.5336 74.6478 57.4717Z" stroke="#263238" stroke-linecap="round" stroke-linejoin="round"/>
<path d="M74.5685 57.9331V58.0535C74.5567 58.0157 74.5646 57.9744 74.5685 57.9331Z" stroke="#263238" stroke-linecap="round" stroke-linejoin="round"/>
<path d="M74.2834 59.6187V59.6661V59.6187Z" stroke="#263238" stroke-linecap="round" stroke-linejoin="round"/>
<path d="M74.22 59.9072L74.1963 60.0586L74.22 59.9072Z" stroke="#263238" stroke-linecap="round" stroke-linejoin="round"/>
<path d="M74.1963 60.1343C74.1963 60.2065 74.1725 60.2753 74.1606 60.3372C74.1725 60.2753 74.1844 60.2237 74.1963 60.1343Z" stroke="#263238" stroke-linecap="round" stroke-linejoin="round"/>
<path d="M140.978 42.4253C140.978 42.4253 140.617 43.7497 140.831 43.9389C141.045 44.1281 142.209 42.9929 142.138 42.4253C142.067 41.8577 141.342 42.1122 140.978 42.4253Z" fill="white" stroke="#263238" stroke-linecap="round" stroke-linejoin="round"/>
<path d="M142.645 42.6144L142.72 44.5064C142.72 44.5064 142.138 44.9467 141.928 44.2518C141.718 43.557 141.493 42.3633 141.493 42.3633L142.645 42.6144Z" fill="white" stroke="#263238" stroke-linecap="round" stroke-linejoin="round"/>
<path d="M143.397 42.6316C143.69 43.2887 143.933 43.9622 144.122 44.6474C144.122 44.9639 143.908 45.0877 143.473 44.6474C143.037 44.2071 142.237 42.4424 142.237 42.4424L143.397 42.6316Z" fill="white" stroke="#263238" stroke-linecap="round" stroke-linejoin="round"/>
<path d="M130.749 37.0073L136.265 39.8419C136.265 39.8419 140.542 40.7879 141.485 41.039C142.427 41.2901 145.975 42.6317 146.047 43.1374C146.118 43.6431 145.758 43.8942 145.255 43.5777C144.752 43.2612 141.489 42.3634 141.489 42.3634L138.661 42.6145C139.045 43.1864 139.508 43.7155 140.039 44.19C140.693 44.6957 141.782 45.3252 141.417 45.566C141.053 45.8068 140.186 45.7552 139.604 45.4388C139.022 45.1223 138.732 44.5581 137.719 44.1797C136.682 43.8219 135.739 43.2861 134.947 42.6042C134.611 42.2999 134.318 41.9615 134.076 41.5963L128.999 40.4611L130.749 37.0073Z" fill="white" stroke="#263238" stroke-linecap="round" stroke-linejoin="round"/>
<path d="M71.5748 69.2951C71.9243 69.4937 72.3162 69.6294 72.7272 69.6941C72.9034 69.7271 73.0866 69.7187 73.2578 69.6697C73.429 69.6207 73.5822 69.533 73.7013 69.4155L74.0577 67.981L74.9329 67.1038C75.218 67.4994 75.0715 68.2184 75.9704 68.4798C76.8693 68.7412 76.3902 68.1152 76.0734 67.3343C75.7566 66.5534 75.8635 65.5489 75.6536 65.229C75.5229 65.0329 75.2378 64.5135 75.0359 64.1385V64.1144L74.0577 60.9634C74.0577 60.9634 74.5131 58.2458 75.0042 55.4388C73.4015 55.6897 71.7524 55.5964 70.2007 55.167C70.2641 57.7711 70.1413 60.7742 70.1413 60.7742C70.1413 60.7742 68.985 66.6497 69.3057 67.9638C69.6265 69.2779 71.5748 69.2951 71.5748 69.2951Z" stroke="#263238" stroke-linecap="round" stroke-linejoin="round"/>
<path d="M106.403 31.6721C106.403 31.6721 106.201 29.3088 105.639 28.1357" stroke="#263238" stroke-linecap="round" stroke-linejoin="round"/>
<path d="M80.0017 37.9811C80.0017 37.9811 81.7679 35.3804 81.9817 33.6191" stroke="#263238" stroke-linecap="round" stroke-linejoin="round"/>
<path d="M80.6393 38.6069C80.6393 38.6069 86.0447 45.0638 90.662 46.7253" stroke="#263238" stroke-linecap="round" stroke-linejoin="round"/>
<path d="M90.9709 48.9268C91.64 49.1251 92.3277 49.2724 93.0262 49.3671" stroke="#263238" stroke-linecap="round" stroke-linejoin="round"/>
<path d="M83.5697 44.3794C85.1518 46.0413 87.119 47.3951 89.3434 48.3526" stroke="#263238" stroke-linecap="round" stroke-linejoin="round"/>
<path d="M86.5278 13.4057C86.5278 13.4057 86.4565 19.2056 86.3852 19.7078C86.314 20.2101 85.514 20.7157 85.514 20.7157C85.514 20.7157 90.0086 25.5042 92.1866 26.5121C94.3646 27.5201 95.0141 27.2689 95.5962 25.2531C96.0083 23.6726 96.3229 22.0742 96.5387 20.4646L88.2702 13.0961C88.2702 13.0961 86.9634 12.6524 86.5278 13.4057Z" fill="white" stroke="#263238" stroke-linecap="round" stroke-linejoin="round"/>
<path d="M84.7419 10.4162C84.7419 10.4162 84.0766 10.5882 84.2785 11.6855C84.4805 12.7829 84.7419 14.2793 85.1379 14.5098C85.6017 14.7015 86.0932 14.838 86.5991 14.9157C86.5991 14.9157 87.197 18.1424 89.2562 19.0678C91.3154 19.9931 92.7094 21.6615 94.432 21.6615C96.1546 21.6615 97.8178 21.4895 98.1504 20.4506C98.483 19.4118 99.5443 15.5486 99.6116 14.6267C99.6331 13.9531 99.6107 13.2789 99.5443 12.6074C99.5443 12.205 99.477 10.7636 99.3463 9.72472C99.2157 8.68584 98.681 6.55304 97.8178 5.34216C96.9545 4.13128 91.1135 2.22552 88.789 2.74496C86.4644 3.2644 83.8113 6.61152 84.7419 10.4162Z" fill="white" stroke="#263238" stroke-linecap="round" stroke-linejoin="round"/>
<path d="M94.3685 13.9902C94.5522 13.9902 94.7012 13.7191 94.7012 13.3847C94.7012 13.0504 94.5522 12.7793 94.3685 12.7793C94.1848 12.7793 94.0359 13.0504 94.0359 13.3847C94.0359 13.7191 94.1848 13.9902 94.3685 13.9902Z" fill="#263238"/>
<path d="M99.2116 13.2402C99.2116 13.5842 99.0651 13.8456 98.8829 13.8456C98.7008 13.8456 98.5503 13.5773 98.5503 13.2402C98.5503 12.9031 98.6968 12.6348 98.8829 12.6348C99.0691 12.6348 99.2116 12.9065 99.2116 13.2402Z" fill="#263238"/>
<path d="M92.642 12.4354C92.642 12.4354 93.9686 11.7474 95.2952 12.1464" stroke="#263238" stroke-linecap="round" stroke-linejoin="round"/>
<path d="M97.9524 11.7992C98.117 11.6601 98.3309 11.5732 98.5594 11.5526C98.7878 11.532 99.0176 11.5789 99.2117 11.6857" stroke="#263238" stroke-linecap="round" stroke-linejoin="round"/>
<path d="M96.7564 16.4706C95.6951 16.2401 92.7093 16.2986 91.9767 17.107C91.2441 17.9154 91.5134 19.2398 91.5134 19.2398C91.5134 19.2398 89.1888 18.0874 88.7889 17.2205C88.3889 16.3536 87.9296 13.8183 87.9296 13.8183C87.9929 13.5878 88.1276 11.6855 88.1276 11.5135C88.1276 11.3415 90.1868 11.455 90.1868 10.7051C90.1868 9.9552 88.5236 9.03328 89.3235 7.186C90.1234 5.33872 91.1807 5.16672 92.84 5.68616C94.4992 6.2056 95.2952 7.186 96.2258 6.61152C96.6883 6.36946 97.0757 6.0329 97.3544 5.63112C97.5531 5.5787 97.7608 5.55659 97.9682 5.56576C97.9206 5.49008 97.8692 5.4144 97.8177 5.34216C96.9544 4.13128 91.1134 2.22552 88.7889 2.74496C86.4644 3.2644 83.8112 6.61152 84.7418 10.4162C84.7418 10.4162 85.3397 10.1857 86.001 10.7602C86.6624 11.3346 86.9316 13.5122 87.1296 13.8149C87.1296 13.8149 87.6603 17.1035 87.9929 17.795C88.3042 18.2342 88.6795 18.6366 89.1096 18.9921L89.2562 19.0643C91.3114 19.9862 92.7093 21.6581 94.4319 21.6581C96.1545 21.6581 97.8177 21.4861 98.1503 20.4472C98.3206 19.9174 98.677 18.6584 98.9978 17.4234C98.4077 16.4774 97.8098 16.701 96.7564 16.4706Z" fill="#263238" stroke="#263238" stroke-linecap="round" stroke-linejoin="round"/>
<path d="M93.5052 17.5093C93.5052 17.5093 95.6951 18.4897 97.6197 17.7982" stroke="#9E9E9E" stroke-linecap="round" stroke-linejoin="round"/>
<path d="M97.5524 12.3184C97.5524 12.3184 98.483 15.951 98.0197 16.412C97.5564 16.8729 95.6437 16.5289 95.2952 16.0095C95.2432 15.9252 95.1779 15.8476 95.1012 15.779" fill="white"/>
<path d="M97.5524 12.3184C97.5524 12.3184 98.483 15.951 98.0197 16.412C97.5564 16.8729 95.6437 16.5289 95.2952 16.0095C95.2432 15.9252 95.1779 15.8476 95.1012 15.779" stroke="#263238" stroke-linecap="round" stroke-linejoin="round"/>
<path d="M80.3936 62.4219C80.644 63.09 80.7905 63.7841 80.8292 64.4859C80.8292 65.3975 79.7798 68.5107 79.6056 68.7377C79.1342 69.2543 78.5019 69.6424 77.784 69.8557C77.2313 69.9227 76.6693 69.8153 76.2 69.553L76.8098 61.5034C76.8098 61.5034 80.1203 61.7305 80.3936 62.4219Z" fill="white" stroke="#263238" stroke-linecap="round" stroke-linejoin="round"/>
<path d="M79.6056 66.4468C79.2048 66.9759 78.7025 67.4413 78.1206 67.8228C77.6804 68.1163 77.1725 68.324 76.6316 68.4317" fill="white"/>
<path d="M79.6056 66.4468C79.2048 66.9759 78.7025 67.4413 78.1206 67.8228C77.6804 68.1163 77.1725 68.324 76.6316 68.4317" stroke="#263238" stroke-linecap="round" stroke-linejoin="round"/>
<path d="M77.2494 45.7378C77.2494 45.7378 78.7462 54.6233 79.6254 56.8971C80.5045 59.171 80.6708 63.1098 80.6708 63.1098C80.2407 62.9413 79.7648 62.881 79.2972 62.9358C78.8296 62.9905 78.389 63.158 78.0255 63.4194C76.6593 64.3241 76.1366 54.1692 76.1366 54.1692L77.2494 45.7378Z" fill="white" stroke="#263238" stroke-linecap="round" stroke-linejoin="round"/>
<path d="M49.4225 61.6892C49.4225 61.6892 50.0561 66.801 51.2322 70.4956C52.4083 74.1902 54.0438 80.1276 54.0438 80.1276C54.0438 80.1276 50.4204 83.8703 50.1472 86.6223C49.8739 89.3743 47.6128 103.84 47.6128 103.84C47.3294 105.344 47.1482 106.861 47.0702 108.384C46.9792 110.664 48.4285 112.55 50.1472 112.629C50.6049 112.65 51.0625 112.587 51.4903 112.444C51.9182 112.301 52.3068 112.082 52.6309 111.8C52.9549 111.519 53.2073 111.181 53.3716 110.81C53.5358 110.438 53.6084 110.04 53.5844 109.643C53.4934 107.754 52.3964 104.218 52.3964 103.354C52.4293 102.616 52.5206 101.88 52.6697 101.153C52.6697 101.153 58.4592 90.5405 59.7977 87.4754C61.1362 84.4104 63.4171 80.5576 63.6904 77.6474C63.9636 74.7371 64.2329 64.283 64.2329 64.283C64.2329 64.283 65.2268 73.0102 65.5912 75.4458C65.9555 77.8813 66.403 80.162 66.3119 80.9498C66.2208 81.7375 64.9576 83.2305 64.9576 85.666C64.9576 88.1015 66.0426 98.0087 66.3119 100.052C66.5812 102.095 66.5851 105.711 66.5851 105.711C66.5851 105.711 65.7694 109.251 65.9515 110.114C66.1337 110.978 67.1395 111.528 68.6681 111.452C70.1966 111.377 71.5628 110.902 73.0993 111.294C74.6358 111.686 78.4414 112.237 79.3442 112.003C80.2471 111.769 81.245 111.136 80.9758 110.427C80.7065 109.718 77.7682 108.944 75.8278 107.992C74.3784 107.283 73.927 107.283 73.4755 105.869C73.2225 105.046 72.7925 104.272 72.2083 103.588C72.2083 103.588 74.9209 86.2955 74.9209 82.4427C74.9209 78.5899 75.408 77.4238 75.408 77.4238C76.5302 74.7466 77.1713 71.9353 77.3088 69.0886C77.5781 64.2142 77.6692 60.6778 77.6692 60.6778C77.6692 60.6778 72.4222 64.0594 61.4688 62.1708C50.5154 60.2822 49.5254 60.1274 49.5254 60.1274L49.4225 61.6892Z" fill="#263238" stroke="#263238" stroke-linecap="round" stroke-linejoin="round"/>
<path d="M81.0074 110.427C80.7342 109.722 77.7998 108.944 75.8594 107.992C74.41 107.283 73.9586 107.283 73.5072 105.869C73.2541 105.046 72.8241 104.272 72.24 103.588C72.24 103.588 71.5153 103.667 71.246 104.534C71.0851 105.18 71.0543 105.844 71.1549 106.499C71.1549 106.499 70.6124 107.531 67.7137 106.182C67.3177 106 66.9573 105.838 66.6286 105.711C66.6286 105.711 65.8129 109.251 65.995 110.114C66.1772 110.977 67.183 111.528 68.7116 111.452C70.2402 111.377 71.6064 110.902 73.1428 111.294C74.6793 111.686 78.4849 112.237 79.3878 112.003C80.2906 111.769 81.2767 111.136 81.0074 110.427Z" fill="white" stroke="#263238" stroke-linecap="round" stroke-linejoin="round"/>
<path d="M52.4994 102.254C51.7747 101.855 50.7728 101.425 49.8739 101.466C49.1819 101.517 48.5087 101.688 47.8939 101.968L47.6048 103.826C47.3235 105.335 47.145 106.857 47.0702 108.384C46.9792 110.665 48.4285 112.55 50.1472 112.629C50.6049 112.65 51.0625 112.587 51.4903 112.444C51.9182 112.301 52.3068 112.082 52.6309 111.801C52.9549 111.519 53.2073 111.181 53.3716 110.81C53.5358 110.438 53.6084 110.041 53.5844 109.643C53.4934 107.754 52.3964 104.218 52.3964 103.355C52.4065 102.986 52.4409 102.619 52.4994 102.254Z" fill="white" stroke="#263238" stroke-linecap="round" stroke-linejoin="round"/>
<path d="M56.5861 21.1799C56.5861 21.1799 52.2895 21.4035 51.1688 22.4493C50.0481 23.495 48.678 37.7607 49.0225 39.4016C49.367 41.0425 51.0025 41.7167 51.1688 42.3909C51.3351 43.0652 51.9608 44.0318 52.6301 45.1429C53.2993 46.2541 50.3293 50.358 49.4225 52.6387C48.5156 54.9194 48.084 55.7932 48.084 57.4444C48.084 59.0956 47.6325 61.5311 48.2661 61.9164C48.8997 62.3017 53.6953 64.9814 63.1082 65.2153C72.5211 65.4493 77.8592 64.0389 78.0374 63.4093C78.2156 62.7798 78.3107 61.9955 78.4017 61.5208C78.4928 61.0461 77.8394 50.8912 77.8394 47.7608V40.8223C77.8394 40.2237 79.9897 38.803 79.3007 34.3998C78.6116 29.9966 78.3582 28.8717 76.5524 26.8559C74.7467 24.8401 74.6595 24.1039 73.9705 22.8965C73.2815 21.689 69.468 20.9563 69.468 20.9563C69.468 20.9563 58.38 20.5813 56.5861 21.1799Z" fill="white" stroke="#263238" stroke-linecap="round" stroke-linejoin="round"/>
<path d="M77.5662 62.0813C60.9342 66.4845 48.5197 60.3613 48.5197 60.3613" stroke="#263238" stroke-linecap="round" stroke-linejoin="round"/>
<path d="M50.3096 39.8486C50.3096 39.8486 50.3096 40.97 52.547 38.507C54.7844 36.0439 55.9843 35.8926 55.9843 35.8926" stroke="#263238" stroke-linecap="round" stroke-linejoin="round"/>
<path d="M76.5959 20.9184C76.5959 20.9184 78.5759 22.2944 77.3008 23.8527C76.0257 25.411 73.8239 25.5555 74.1407 26.5118C74.4575 27.4681 77.5186 28.4898 76.9682 29.2397C76.4177 29.9897 74.1407 30.0585 74.1407 30.0585C74.1407 30.0585 75.4 29.3705 74.7704 28.8304C74.1407 28.2903 73.2775 29.3739 71.7093 28.0805C70.1411 26.787 69.2739 24.6026 70.3748 22.6246C71.4757 20.6466 71.7885 20.1685 71.7885 20.1685L76.5959 20.9184Z" fill="#263238" stroke="#263238" stroke-linecap="round" stroke-linejoin="round"/>
<path d="M79.7957 9.65575C79.7957 9.65575 80.267 11.8367 80.0294 12.3837C79.7918 12.9306 79.0117 13.8147 79.1661 14.2929C79.3205 14.771 80.4214 16.4773 80.1086 16.8832C79.7957 17.2891 78.4612 18.0425 78.4612 18.0425C78.4612 18.0425 76.9683 21.455 76.5762 21.5891C76.1842 21.7233 73.6696 21.2451 71.0798 19.9551C68.4899 18.6651 67.9395 18.1801 67.7851 17.5678C67.6306 16.9554 67.5475 16.3397 68.3315 15.1804C69.1156 14.0211 71.4718 14.771 72.3351 12.3149C73.1984 9.85871 73.828 7.54359 76.4179 7.33719C79.0077 7.13079 79.7957 9.65575 79.7957 9.65575Z" fill="white" stroke="#263238" stroke-linecap="round" stroke-linejoin="round"/>
<path d="M77.2811 18.5999C77.2811 18.5999 75.4753 18.0529 75.2417 16.8799" stroke="#263238" stroke-linecap="round" stroke-linejoin="round"/>
<path d="M78.2236 14.3512C78.085 14.7331 77.7801 14.9911 77.5425 14.9257C77.3049 14.8604 77.2178 14.4992 77.3564 14.1173C77.495 13.7355 77.7999 13.4775 78.0375 13.5428C78.2751 13.6082 78.3622 13.9694 78.2236 14.3512Z" fill="#263238"/>
<path d="M77.0475 12.6658C77.0475 12.6658 78.3028 11.9159 79.1661 12.6658" stroke="#263238" stroke-linecap="round" stroke-linejoin="round"/>
<path d="M79.7957 9.65585C79.7957 9.65585 77.2811 8.01841 76.2633 9.24649C75.2456 10.4746 75.9149 12.4182 75.0753 13.2025C70.6243 17.413 70.3669 15.0429 69.6581 15.5898C69.2176 15.985 68.8781 16.4564 68.6618 16.9733C68.4455 17.4902 68.3572 18.0409 68.4027 18.5895C68.4819 19.8864 70.5213 22.1362 69.7373 23.8424C68.9532 25.5487 67.1474 25.6828 66.7554 27.045C66.3633 28.4073 69.5828 29.3636 68.0107 30.5229C66.4386 31.6822 63.3775 32.2979 63.0647 32.2979C62.7518 32.2979 64.712 30.8634 63.3775 30.5229C62.043 30.1823 60.7085 31.2109 59.6115 30.3199C58.5146 29.429 59.3739 28.2731 59.2155 27.7296C59.0571 27.1861 57.4098 25.6828 55.9169 23.4984C54.4239 21.314 56.1545 20.6363 57.4098 20.3646C58.6651 20.0928 59.2947 20.0206 59.37 19.4083C59.4452 18.7959 59.0571 16.7491 59.1363 14.9741C59.2155 13.1991 62.435 6.92793 63.7695 5.97505C65.1041 5.02217 70.3748 3.11985 74.22 3.86977C78.0651 4.61969 79.0868 6.46009 80.8926 7.68817C82.6983 8.91625 81.7559 10.0755 80.9718 10.4849L80.1798 10.8942L79.7957 9.65585Z" fill="#263238" stroke="#263238" stroke-linecap="round" stroke-linejoin="round"/>
<path d="M66.8623 23.5533C66.8623 23.5533 67.1197 22.1326 67.2029 21.7611C67.2861 21.3896 66.6802 18.8474 66.7673 18.1766C66.8544 17.5058 68.577 15.5519 69.2661 15.4762C69.9551 15.4005 70.4541 16.006 70.7194 16.3053C70.9847 16.6045 70.8065 17.0517 70.6323 17.4233C70.4491 18.0382 70.3076 18.6619 70.2085 19.2912C70.4802 18.7052 70.8556 18.1596 71.3213 17.6744C71.9232 17.1515 72.5093 17.2994 72.438 17.6744C72.2343 18.231 71.9773 18.7718 71.6698 19.2912C71.5166 19.6541 71.4013 20.0283 71.3253 20.4092C71.3253 20.4092 72.0183 21.9021 71.7609 23.0236C71.5035 24.145 70.5729 26.0886 70.4778 26.3122C70.3828 26.5358 66.3475 25.0463 66.3475 25.0463L66.8623 23.5533Z" fill="white" stroke="#263238" stroke-linecap="round" stroke-linejoin="round"/>
<path d="M70.2085 19.2881C70.0733 19.5576 69.9904 19.8447 69.963 20.1378C69.9897 20.4771 70.0466 20.814 70.1333 21.1457" stroke="#263238" stroke-linecap="round" stroke-linejoin="round"/>
<path d="M70.2323 15.9302C70.2323 15.9302 68.9651 18.1937 68.882 18.5549C68.7988 18.9161 68.7196 20.7187 68.882 21.0799" stroke="#263238" stroke-linecap="round" stroke-linejoin="round"/>
<path d="M69.0245 15.6172C69.0245 15.6172 67.686 17.8119 67.6028 18.2694C67.5197 18.7269 67.8286 20.8047 67.8286 20.8047" stroke="#263238" stroke-linecap="round" stroke-linejoin="round"/>
<path d="M66.8623 23.5532L72.1093 25.5622L70.3154 30.791C70.3154 30.791 72.64 31.9847 72.2123 33.8526C71.7846 35.7205 68.9651 44.5166 68.1929 46.0302C67.4207 47.5438 64.1577 48.4382 62.0945 49.1743C60.0313 49.9105 55.7347 49.7798 54.5309 48.9611C53.327 48.1423 52.634 46.0508 52.6301 45.1564C52.6261 44.262 52.1113 42.4663 53.8181 42.1671C55.5248 41.8678 56.2218 41.0422 56.3921 39.4735C56.5624 37.9049 57.7583 35.2905 58.4473 34.8399C59.1364 34.3892 61.453 34.1519 61.453 34.1519C61.453 34.1519 62.7439 34.1519 61.5361 32.3596C60.3283 30.5674 61.1005 29.8209 62.5618 29.1467C63.4416 28.7409 64.2756 28.2641 65.0526 27.7225L66.8623 23.5532Z" fill="white" stroke="#263238" stroke-linecap="round" stroke-linejoin="round"/>
<path d="M62.4944 32.2222C62.4944 32.2222 64.91 36.5497 65.9396 36.9212C66.9692 37.2927 69.1076 36.3192 69.1076 36.3192" stroke="#263238" stroke-linecap="round" stroke-linejoin="round"/>
<path d="M56.0634 41.6479C56.0634 41.6479 54.6893 43.3679 54.7803 44.7852C54.8714 46.2025 56.1584 46.3539 56.1584 46.3539" stroke="#263238" stroke-linecap="round" stroke-linejoin="round"/>
<path d="M177.374 52.2227H127.93C125.377 52.2227 123.308 54.02 123.308 56.2371V89.987C123.308 92.2041 125.377 94.0014 127.93 94.0014H177.374C179.926 94.0014 181.995 92.2041 181.995 89.987V56.2371C181.995 54.02 179.926 52.2227 177.374 52.2227Z" fill="#317865" stroke="#263238" stroke-miterlimit="10"/>
<path d="M127.834 70.2344L130.658 88.8035H126.88L127.834 70.2344Z" fill="#263238" stroke="#263238" stroke-miterlimit="10"/>
<path d="M244.528 52.2227H195.083C192.531 52.2227 190.462 54.02 190.462 56.2371V89.987C190.462 92.2041 192.531 94.0014 195.083 94.0014H244.528C247.08 94.0014 249.149 92.2041 249.149 89.987V56.2371C249.149 54.02 247.08 52.2227 244.528 52.2227Z" fill="#317865" stroke="#263238" stroke-miterlimit="10"/>
<path d="M236.065 52.2227H186.621C184.068 52.2227 181.999 54.02 181.999 56.2371V89.987C181.999 92.2041 184.068 94.0014 186.621 94.0014H236.065C238.618 94.0014 240.687 92.2041 240.687 89.987V56.2371C240.687 54.02 238.618 52.2227 236.065 52.2227Z" fill="#317865" stroke="#263238" stroke-miterlimit="10"/>
<path d="M237.142 67.4479C237.142 67.4479 227.432 64.5686 220.847 63.6639C214.261 62.7592 212.349 61.7065 212.349 61.7065C212.174 62.4521 212.059 63.2073 212.004 63.9666C212.004 64.72 210.618 68.7826 209.751 73.0035C208.884 77.2244 208.016 81.6035 208.016 81.6035C208.016 81.6035 206.868 84.7958 206.733 85.8863C206.69 86.2303 205.383 87.4481 206.773 88.3493C208.163 89.2506 210.444 87.7783 210.444 87.7783C210.444 87.7783 217.033 88.9823 222.577 88.9823C226.235 88.9533 229.886 88.7016 233.503 88.2289C233.503 88.2289 235.408 89.285 236.101 88.081L236.798 86.8736C236.976 82.9279 238.528 77.0799 238.877 69.3881C238.956 67.8779 240.782 67.4479 237.142 67.4479Z" fill="white" stroke="#263238" stroke-linecap="round" stroke-linejoin="round"/>
<path d="M125.058 68.3701H116.402C114.871 68.3701 113.63 69.4482 113.63 70.7781V109.881C113.63 111.211 114.871 112.289 116.402 112.289H125.058C126.589 112.289 127.83 111.211 127.83 109.881V70.7781C127.83 69.4482 126.589 68.3701 125.058 68.3701Z" fill="#317865" stroke="#263238" stroke-miterlimit="10"/>
<path d="M117.788 68.3701H109.131C107.6 68.3701 106.359 69.4482 106.359 70.7781V109.881C106.359 111.211 107.6 112.289 109.131 112.289H117.788C119.319 112.289 120.56 111.211 120.56 109.881V70.7781C120.56 69.4482 119.319 68.3701 117.788 68.3701Z" fill="#317865" stroke="#263238" stroke-miterlimit="10"/>
<path d="M120.655 92.6876L121.051 111.05C121.051 111.212 121.087 111.372 121.157 111.521C121.228 111.671 121.332 111.807 121.464 111.921C121.595 112.035 121.751 112.126 121.923 112.188C122.095 112.25 122.279 112.282 122.465 112.282H242.556L242.16 92.6738L120.655 92.6876Z" fill="#317865" stroke="#263238" stroke-miterlimit="10"/>
<path d="M120.655 94.7344V97.5758C127.692 97.4898 159.657 97.2043 167.49 97.2043C176.709 97.2043 193.784 97.7306 198.014 97.7306C202.243 97.7306 239.629 97.9852 239.629 97.9852L239.681 95.6563L120.655 94.7344Z" fill="#263238" stroke="#263238" stroke-miterlimit="10"/>
<path d="M180.269 88.1605C178.376 88.1605 130.884 88.0814 129.367 87.9197C128.143 87.7855 122.706 87.8681 120.655 87.9025V96.3167C128.714 96.4027 204.013 97.1286 208.104 97.1286C212.46 97.1286 239.507 96.6882 239.507 96.6882V88.9586C239.507 88.9586 182.166 88.1605 180.269 88.1605Z" fill="#317865" stroke="#263238" stroke-miterlimit="10"/>
<path d="M247.72 68.3701H239.063C237.532 68.3701 236.291 69.4482 236.291 70.7781V109.881C236.291 111.211 237.532 112.289 239.063 112.289H247.72C249.251 112.289 250.492 111.211 250.492 109.881V70.7781C250.492 69.4482 249.251 68.3701 247.72 68.3701Z" fill="#317865" stroke="#263238" stroke-miterlimit="10"/>
<path d="M238.905 68.3701H230.248C228.717 68.3701 227.476 69.4482 227.476 70.7781V109.881C227.476 111.211 228.717 112.289 230.248 112.289H238.905C240.435 112.289 241.677 111.211 241.677 109.881V70.7781C241.677 69.4482 240.435 68.3701 238.905 68.3701Z" fill="#317865" stroke="#263238" stroke-miterlimit="10"/>
<path d="M147.876 77.1797C149.168 79.4367 151.16 81.3357 153.626 82.6632C156.093 83.9907 158.937 84.694 161.839 84.694C164.741 84.694 167.585 83.9907 170.052 82.6632C172.518 81.3357 174.51 79.4367 175.802 77.1797H147.876Z" fill="white" stroke="#263238" stroke-linecap="round" stroke-linejoin="round"/>
<path d="M197.677 84.0391H159.182V112.288H197.713V84.0803C197.713 84.0631 197.697 84.0391 197.677 84.0391ZM196.414 110.386H160.481V85.9414H196.374C196.398 85.9414 196.414 85.9689 196.414 85.9999V110.386Z" fill="#263238" stroke="#263238" stroke-linecap="round" stroke-linejoin="round"/>
<path d="M170.959 84.0391H132.464V112.288H170.995V84.0803C170.995 84.0631 170.979 84.0391 170.959 84.0391ZM169.696 110.386H133.763V85.9414H169.656C169.676 85.9414 169.692 85.9689 169.692 85.9999L169.696 110.386Z" fill="#263238" stroke="#263238" stroke-linecap="round" stroke-linejoin="round"/>
<path d="M131.517 84.0391H198.837C198.856 84.0391 198.874 84.0456 198.888 84.0572C198.901 84.0688 198.909 84.0846 198.909 84.101V86.5503H131.517V84.0425V84.0391Z" fill="white" stroke="#263238" stroke-linecap="round" stroke-linejoin="round"/>
<path d="M169.656 84.0391H198.837C198.856 84.0391 198.874 84.0456 198.888 84.0572C198.901 84.0688 198.909 84.0846 198.909 84.101V86.5503H169.656V84.0425V84.0391Z" fill="#263238" stroke="#263238" stroke-linecap="round" stroke-linejoin="round"/>
<path d="M0.785645 112.289H286.852" stroke="#263238" stroke-linecap="round" stroke-linejoin="round"/>
</svg>
