<svg width="92" height="121" viewBox="0 0 92 121" fill="none" xmlns="http://www.w3.org/2000/svg">
<path d="M3.72742 121H91.3275V3.02856H3.72742V121" fill="#317865"/>
<path d="M0.211492 117.972H87.5999V0.211362H0.211492V117.972ZM87.7056 118.184H0.105746C0.0473743 118.184 0 118.136 0 118.078V0.105615C0 0.0474551 0.0473743 -0.00013064 0.105746 -0.00013064H87.7056C87.7638 -0.00013064 87.8114 0.0474551 87.8114 0.105615V118.078C87.8114 118.136 87.7638 118.184 87.7056 118.184Z" fill="#D3BBA3"/>
<path d="M12.4631 31.7387H82.1561V13.6001H12.4631V31.7387ZM82.2619 31.9502H12.3573C12.2989 31.9502 12.2516 31.9026 12.2516 31.8444V13.4943C12.2516 13.4362 12.2989 13.3886 12.3573 13.3886H82.2619C82.32 13.3886 82.3676 13.4362 82.3676 13.4943V31.8444C82.3676 31.9026 82.32 31.9502 82.2619 31.9502Z" fill="#D3BBA3"/>
<path d="M34.8132 20.0325H32.1793V27.3015H30.7232V20.0325H28.1125V18.8482H34.8132V20.0325Z" fill="#FFA892"/>
<path d="M40.8581 23.5274H37.389V26.1288H41.444V27.3015H35.9211V18.8482H41.4035V20.0325H37.389V22.3664H40.8581V23.5274Z" fill="#FFA892"/>
<path d="M44.1071 22.8655H45.6155C46.1105 22.8655 46.4973 22.7407 46.7758 22.4911C47.0542 22.2416 47.1936 21.9 47.1936 21.4665C47.1936 21.0139 47.0649 20.6628 46.8077 20.4153C46.5503 20.1679 46.1667 20.0399 45.656 20.0325H44.1071V22.8655ZM45.7431 24.0498H44.1071V27.3015H42.6393V18.8482H45.6097C46.5843 18.8482 47.3365 19.0671 47.8664 19.5049C48.3963 19.9427 48.6612 20.5761 48.6612 21.4051C48.6612 21.9709 48.5248 22.4435 48.2522 22.8253C47.9796 23.207 47.5995 23.4999 47.1122 23.7061L49.0092 27.2264V27.3015H47.4371L45.7431 24.0498" fill="#FFA892"/>
<path d="M51.9565 18.8482L54.3931 25.3272L56.8239 18.8482H58.7206V27.3015H57.2589V24.5151L57.404 20.7876L54.9093 27.3015H53.8593L51.3705 20.7928L51.5155 24.5151V27.3015H50.0535V18.8482H51.9565Z" fill="#FFA892"/>
<path d="M64.8708 25.1243C64.8708 24.7532 64.7397 24.4666 64.4785 24.2646C64.2173 24.0637 63.7468 23.8607 63.0657 23.6555C62.3858 23.4504 61.8444 23.222 61.4415 22.9703C60.6717 22.486 60.2867 21.8557 60.2867 21.0774C60.2867 20.3964 60.5649 19.8349 61.12 19.394C61.6752 18.953 62.3953 18.732 63.2804 18.732C63.8684 18.732 64.3929 18.8399 64.8529 19.0566C65.3129 19.2734 65.6745 19.5822 65.9378 19.983C66.2011 20.3837 66.3323 20.8279 66.3323 21.3154H64.8708C64.8708 20.8744 64.7323 20.5286 64.4553 20.2791C64.1793 20.0295 63.7838 19.9047 63.2688 19.9047C62.7898 19.9047 62.4175 20.0073 62.1521 20.2124C61.8877 20.4176 61.7545 20.7042 61.7545 21.0721C61.7545 21.3809 61.8983 21.64 62.1849 21.8473C62.4704 22.0535 62.942 22.2555 63.5998 22.4511C64.2575 22.6457 64.7852 22.8688 65.1839 23.1183C65.5825 23.3679 65.8744 23.6545 66.0594 23.9781C66.2455 24.3006 66.3386 24.6791 66.3386 25.1127C66.3386 25.817 66.0679 26.3774 65.5286 26.7941C64.9893 27.2096 64.2575 27.418 63.3333 27.418C62.7221 27.418 62.1606 27.3048 61.6477 27.0775C61.1348 26.8522 60.7372 26.5392 60.4528 26.1406C60.1683 25.7419 60.0266 25.2777 60.0266 24.7468H61.4944C61.4944 25.2269 61.653 25.5981 61.9692 25.8614C62.2864 26.1247 62.7411 26.2569 63.3333 26.2569C63.844 26.2569 64.2268 26.1533 64.4849 25.946C64.7418 25.7387 64.8708 25.4648 64.8708 25.1243" fill="#FFA892"/>
<path d="M57.8757 91.4767C56.9981 91.4767 56.0342 92.091 55.3091 92.8038C52.7725 95.2973 51.0276 98.5976 50.3962 102.097C50.3341 102.441 50.2377 103.127 50.283 103.873C50.3202 103.872 50.3571 103.871 50.3939 103.869C51.4732 103.807 52.427 103.172 53.2176 102.56C55.6041 100.711 57.5796 98.3079 58.9321 95.6092C59.5856 94.3054 59.9366 92.5087 58.7777 91.7421C58.4985 91.557 58.1929 91.4767 57.8757 91.4767V91.4767ZM56.558 101.567C56.534 101.567 56.5094 101.568 56.4844 101.57C56.0941 101.606 55.6302 101.924 55.3813 102.327C54.7674 103.321 54.7299 104.613 55.23 105.645C55.9044 104.956 56.3948 104.076 56.8355 103.285C57.2282 102.58 57.2881 102.069 57.0137 101.766C56.8947 101.634 56.7414 101.567 56.558 101.567V101.567ZM61.2955 103.776C60.68 104.095 60.219 104.728 60.0498 105.496C59.9493 105.958 59.9641 106.418 60.0847 106.83C60.9931 106.122 61.4964 104.903 61.2955 103.776V103.776ZM62.3709 108.654C61.5873 108.654 60.8619 108.354 60.3892 107.822C60.2169 107.628 60.0794 107.406 59.9779 107.164C59.8626 107.239 59.741 107.306 59.6152 107.365C58.2511 108.003 56.481 107.607 55.4979 106.444C55.3776 106.301 55.2704 106.15 55.1763 105.99C55.1064 106.055 55.0346 106.116 54.9609 106.176C54.1099 106.866 52.7514 107.311 51.6337 106.753C50.5607 106.217 50.184 105.108 50.088 104.078C49.0899 104.011 48.0395 103.371 47.888 102.311C47.8798 102.253 47.92 102.2 47.9777 102.192C48.0351 102.183 48.0891 102.224 48.0974 102.282C48.2278 103.193 49.1666 103.789 50.0718 103.865C50.0276 103.103 50.1246 102.411 50.188 102.06C50.8272 98.5172 52.5933 95.1767 55.1607 92.6536C56.2071 91.6247 57.7371 90.7999 58.8951 91.5655C60.1693 92.4093 59.8129 94.3223 59.1213 95.7044C57.7551 98.4316 55.7585 100.86 53.3472 102.727C52.5308 103.359 51.543 104.015 50.4061 104.081C50.3709 104.083 50.3353 104.084 50.2998 104.084C50.3937 105.05 50.747 106.073 51.7282 106.563C52.7618 107.081 54.0296 106.659 54.8276 106.013C54.9115 105.944 54.9925 105.873 55.0713 105.8C54.5087 104.695 54.5375 103.291 55.2014 102.216C55.487 101.753 56.0066 101.401 56.4652 101.36C56.7472 101.334 56.9915 101.425 57.1706 101.624C57.5125 102.002 57.4619 102.596 57.0203 103.388C56.5625 104.21 56.0522 105.125 55.3334 105.841C55.4275 106.005 55.5362 106.162 55.6593 106.308C56.5828 107.4 58.2447 107.772 59.5264 107.174C59.6575 107.112 59.7833 107.04 59.9028 106.961C59.7537 106.496 59.7294 105.973 59.8436 105.451C60.0371 104.568 60.5923 103.848 61.3304 103.526C61.3589 103.514 61.3917 103.515 61.4203 103.529C61.4478 103.542 61.4679 103.569 61.4753 103.599C61.7639 104.862 61.1982 106.264 60.1566 107.04C60.2497 107.277 60.3808 107.495 60.5468 107.681C61.0364 108.232 61.8263 108.511 62.6585 108.428C63.4918 108.344 64.2098 107.915 64.5821 107.278C64.6117 107.229 64.6762 107.212 64.7269 107.24C64.7767 107.27 64.7936 107.334 64.765 107.385C64.3589 108.08 63.5796 108.548 62.6797 108.638C62.5761 108.649 62.4735 108.654 62.3709 108.654Z" fill="white"/>
<path d="M57.2784 77.8301H30.632V76.1942H57.2784V77.8301Z" fill="#F2E6DC"/>
<path d="M67.5261 81.9172H34.767V80.2813H67.5261V81.9172Z" fill="#F2E6DC"/>
<path d="M62.1511 86.0054H30.632V84.3695H62.1511V86.0054Z" fill="#F2E6DC"/>
<path d="M70.6467 59.8301H37.6836V58.1931H70.6467V59.8301Z" fill="#F2E6DC"/>
<path d="M61.2597 63.9172H29.7404V62.2813H61.2597V63.9172Z" fill="#F2E6DC"/>
<path d="M66.7511 68.0051H29.7404V66.3692H66.7511V68.0051Z" fill="#F2E6DC"/>
<path d="M66.751 42.9192H37.8004V41.2833H66.751V42.9192" fill="#F2E6DC"/>
<path d="M61.2595 47.0073H29.8572V45.3714H61.2595V47.0073Z" fill="#F2E6DC"/>
<path d="M70.6466 51.0955H29.8572V49.4585H70.6466V51.0955Z" fill="#F2E6DC"/>
<path d="M12.4631 87.6054H25.4802V74.5944H12.4631V87.6054ZM25.586 87.8169H12.3573C12.2989 87.8169 12.2516 87.7693 12.2516 87.7111V74.4887C12.2516 74.4294 12.2989 74.3829 12.3573 74.3829H25.586C25.6443 74.3829 25.6917 74.4294 25.6917 74.4887V87.7111C25.6917 87.7693 25.6443 87.8169 25.586 87.8169Z" fill="#F2E6DC"/>
<path d="M18.262 85.7124L14.1204 81.9468L15.3999 80.3691L18.0259 82.4681L22.1465 76.4871L23.8229 77.6408L18.262 85.7124" fill="#FFA892"/>
<path d="M12.4631 69.6054H25.4802V56.5944H12.4631V69.6054ZM25.586 69.8169H12.3573C12.2989 69.8169 12.2516 69.7693 12.2516 69.7111V56.4887C12.2516 56.4294 12.2989 56.3829 12.3573 56.3829H25.586C25.6443 56.3829 25.6917 56.4294 25.6917 56.4887V69.7111C25.6917 69.7693 25.6443 69.8169 25.586 69.8169Z" fill="#F2E6DC"/>
<path d="M18.262 67.7114L14.1204 63.9469L15.3999 62.3691L18.0259 64.4682L22.1465 58.4872L23.8229 59.6409L18.262 67.7114Z" fill="#FFA892"/>
<path d="M12.4631 52.6943H25.4802V39.6833H12.4631V52.6943ZM25.586 52.9058H12.3573C12.2989 52.9058 12.2516 52.8592 12.2516 52.8V39.5775C12.2516 39.5194 12.2989 39.4718 12.3573 39.4718H25.586C25.6443 39.4718 25.6917 39.5194 25.6917 39.5775V52.8C25.6917 52.8592 25.6443 52.9058 25.586 52.9058Z" fill="#F2E6DC"/>
<path d="M18.262 50.8015L14.1204 47.0359L15.3999 45.4592L18.0259 47.5572L22.1465 41.5773L23.8229 42.731L18.262 50.8015" fill="#FFA892"/>
</svg>
