<svg width="68" height="84" viewBox="0 0 68 84" fill="none" xmlns="http://www.w3.org/2000/svg">
<path d="M64.9113 15.8625C55.4939 13.5221 46.6426 9.31383 38.8825 3.4875L36.25 1.5C35.6009 1.01317 34.8114 0.75 34 0.75C33.1886 0.75 32.3991 1.01317 31.75 1.5L29.125 3.47625C21.365 9.30258 12.5136 13.5108 3.09626 15.8512C2.28207 16.0534 1.55919 16.5228 1.04321 17.1842C0.52722 17.8457 0.247936 18.6611 0.250011 19.5V36.825C0.266369 43.6688 1.86793 50.4158 4.92911 56.5368C7.99028 62.6579 12.4278 67.9866 17.8938 72.105L31.75 82.5C32.3991 82.9868 33.1886 83.25 34 83.25C34.8114 83.25 35.6009 82.9868 36.25 82.5L50.125 72.105C55.5875 67.9846 60.0215 62.6551 63.0793 56.5341C66.1372 50.4132 67.7358 43.6672 67.75 36.825V19.5C67.75 18.664 67.4706 17.852 66.9563 17.193C66.442 16.5339 65.7222 16.0656 64.9113 15.8625ZM47.9013 37.1512L32.9013 52.1512C32.198 52.8543 31.2444 53.2492 30.25 53.2492C29.2556 53.2492 28.302 52.8543 27.5988 52.1512L20.0988 44.6512C19.4157 43.944 19.0377 42.9967 19.0462 42.0135C19.0548 41.0303 19.4492 40.0897 20.1444 39.3944C20.8397 38.6992 21.7803 38.3048 22.7635 38.2962C23.7467 38.2877 24.694 38.6657 25.4013 39.3488L30.25 44.1975L42.5988 31.8488C43.306 31.1657 44.2533 30.7877 45.2365 30.7962C46.2198 30.8048 47.1603 31.1992 47.8556 31.8944C48.5509 32.5897 48.9452 33.5303 48.9538 34.5135C48.9623 35.4967 48.5844 36.444 47.9013 37.1512Z" fill="#FFA892"/>
</svg>
